<?xml version="1.0" encoding="UTF-8"?>
<svg id="Layer_1" xmlns="http://www.w3.org/2000/svg" version="1.1" viewBox="0 0 1032.13 441">
  <!-- Generator: Adobe Illustrator 30.4.0, SVG Export Plug-In . SVG Version: 2.1.4 Build 226)  -->
  <defs>
    <style>
      .st0 {
        fill: #9ea3ae;
      }
    </style>
  </defs>
  <path class="st0" d="M114.28,439.05H0c1.22-5.43,2.25-10.52,3.51-15.56,9.23-36.97,18.48-73.93,27.77-110.88,9.21-36.64,18.51-73.26,27.7-109.9,8.8-35.09,17.56-70.19,26.27-105.31,2.71-10.93,5.88-21.8,7.64-32.88,2.05-12.97-1.14-25.43-8.9-35.95-5.93-8.04-13.4-14.94-20.08-22.44-1.11-1.25-1.71-2.95-2.55-4.44,1.75-.54,3.51-1.56,5.26-1.57,83.99-.08,167.98-.07,251.97-.03,1.73,0,3.47.55,5.2.9,12.28,2.46,19.45,10.16,22.46,22.04,4.1,16.2,8.14,32.42,12.47,49.7,2.68-4.42,5.08-8.11,7.23-11.94,10.2-18.21,25.34-30.84,43.88-40,16.48-8.14,33.78-13.32,51.91-15.68,12.95-1.69,25.97-3.7,38.98-3.89,50.41-.75,100.82-.93,151.24-1.14,38.66-.16,77.32-.03,115.99-.03h5.34v5.67c0,101.15-.11,202.31.11,303.46.04,16.19,10.17,26.8,25.86,29.87,15.73,3.08,30.05-.29,42.43-10.26,5.85-4.71,9.57-11.55,10.45-19.08.97-8.34,1.1-16.81,1.1-25.22.07-92.82.04-185.64.04-278.47V.33h145v5.74c0,125.15-.01,250.3.02,375.46,0,11.5,4.53,21.37,11.95,29.91,6.47,7.46,13.29,14.62,19.84,22.01,1,1.13,1.38,2.8,2.04,4.22-1.49.46-2.97,1.32-4.46,1.32-45.83.07-91.66.11-137.48.02-11.86-.02-23.21-9.36-26.9-20.51-1.49-4.5-2.92-9.01-4.69-14.44-6.92,11.06-16.26,18.14-26.72,23.85-10.37,5.67-21.46,10.04-33.16,10.93-19.11,1.45-38.36,2.7-57.47,1.93-26.18-1.05-51.62-6.29-73.8-21.7-10.68-7.42-19.48-16.6-26.16-27.78-.66-1.1-1.47-2.12-2.34-3.37-7.55,10.31-15.97,19.41-26.6,26.08-13.03,8.16-27.03,14.27-42.22,16.97-13.73,2.44-27.54,4.81-41.42,5.91-17.78,1.41-35.65,2.01-53.49,2.09-55.99.25-111.99.07-167.98.15-3.57,0-5.21-.57-6.14-4.73-3.99-17.72-8.65-35.29-13.03-52.92-1.63-6.55-3.26-13.11-4.74-19.7-.57-2.54-1.52-3.78-4.48-3.78-40.33.1-80.66.13-120.99-.02-4.06-.01-4.07,1.85-4.74,5.02-2.67,12.58-5.94,25.04-8.97,37.54-3.1,12.78-6.2,25.55-9.35,38.52h-20.5M509.64,164.08c4.72,1.99,9.42,4.05,14.18,5.95,17.53,7.04,35.29,13.56,52.58,21.16,17.32,7.61,33.94,16.76,48.02,29.62,17.01,15.53,29.18,34.12,33.36,57.03,1.62.44,3.01.88,4.43,1.2,26.07,5.88,52.13,11.77,78.22,17.53,1.23.27,2.7-.55,4.07-.87-.03-.55-.06-1.1-.09-1.65-27.88-13.03-56.54-24.41-84.15-38.19,1.41-.82,2.54-.87,3.66-.81,11.34.65,22.67,1.36,34.01,1.98,7.41.4,14.84.54,22.25,1.06,6.85.47,13.66,1.46,20.52,1.9,4.75.3,9.54.06,14.31.06.09-.67.17-1.34.26-2.01-1.78-.91-3.46-2.19-5.35-2.68-16.19-4.18-32.41-8.21-48.62-12.31-10.91-2.75-21.82-5.49-32.69-8.37-1.3-.34-2.39-1.48-3.58-2.25.24-.43.47-.86.71-1.29,9.15-.7,18.31-1.29,27.45-2.14,13.01-1.21,26-2.67,39.01-3.93,7.82-.76,15.67-1.26,23.48-2.11,1.27-.14,2.4-1.48,3.59-2.27l-.25-1.77c-31.24-2.97-62.49-5.94-93.73-8.92-.12-.45-.25-.91-.37-1.36.97-.53,1.89-1.29,2.93-1.56,24.91-6.39,49.83-12.7,74.73-19.11,4.37-1.12,8.64-2.63,12.96-3.97-.03-.61-.05-1.21-.08-1.82-1.54-.38-3.11-1.16-4.62-1.07-8.68.52-17.34,1.37-26.01,1.89-8.07.49-16.17.66-24.25,1.06-6.57.32-13.15.71-19.71,1.18-6.8.49-13.59,1.12-22.02,1.82,2-2.01,2.8-3.34,3.96-3.88,5.23-2.43,10.56-4.65,15.87-6.93,12.66-5.44,25.34-10.82,37.97-16.3,8.53-3.7,17.03-7.48,25.47-11.4.93-.43,1.34-2.01,1.99-3.06-1.05-.23-2.15-.79-3.14-.65-4.32.63-8.66,1.28-12.91,2.27-22.57,5.24-45.11,10.62-67.68,15.85-2.88.67-5.9.75-8.86,1.1-.24-.53-.49-1.06-.73-1.58,25.39-16.62,50.79-33.24,76.18-49.85-.25-.64-.49-1.27-.74-1.9-1.4,0-2.96-.42-4.16.06-14.58,5.81-29.08,11.82-43.65,17.65-12.49,5-25.03,9.86-37.58,14.7-.94.36-2.15.05-4.57.05,22.95-21.33,44.78-41.62,66.62-61.92-.28-.62-.55-1.23-.83-1.85-1.44.23-3.12.05-4.27.74-24.65,14.86-49.24,29.82-73.87,44.7-.76.46-1.87.32-2.82.46.23-1.09.12-2.43.73-3.24,8.36-11.16,16.85-22.22,25.25-33.35,8-10.6,15.99-21.21,23.82-31.94.82-1.12.47-3.09.66-4.66-.55-.11-1.11-.22-1.66-.33-6.1,5.48-12.14,11.03-18.32,16.42-14.94,13.02-29.92,26-44.98,38.9-1.65,1.41-3.89,2.13-6.79,3.66.61-1.77.72-2.24.93-2.65,12.02-24.04,24.01-48.11,36.14-72.09,1.29-2.56,1.74-4.34-1.47-5.89-1.41,1.5-2.99,2.99-4.35,4.67-16.8,20.75-33.53,41.56-50.44,62.21-.96,1.17-3.74,2.06-5.07,1.54-11.9-4.66-24.02-8.2-36.78-9.57-17.56-1.89-34.88-1.86-51.86,4.01-23.75,8.22-28.89,34.64-12.07,51.01,9.67,9.41,22.02,14.45,34.82,20.06M359.93,344.08c15.87-9.48,31.74-18.96,47.61-28.43.54.53,1.08,1.06,1.62,1.59-16.64,23.84-35.27,46.25-53.06,71.47,2.77-.31,4.65.06,5.56-.72,13.32-11.42,26.49-23.01,39.72-34.53,8.63-7.52,17.29-15.01,25.94-22.51.47.12.95.24,1.42.36-.25,1.49-.16,3.15-.8,4.45-11.42,23.25-22.97,46.44-34.36,69.71-.76,1.55-.48,3.61-.68,5.43.75.34,1.51.67,2.26,1.01.94-1.36,1.8-2.79,2.82-4.08,7.55-9.57,15.09-19.15,22.71-28.67,9.16-11.44,18.35-22.86,27.69-34.15.77-.93,3.14-1.56,4.2-1.08,14.23,6.45,29.06,8.88,44.67,8.24,13.5-.55,26.17-3.38,37.95-10.09,17.68-10.09,22.3-29.25,11.08-46.15-5.76-8.67-13.86-14.82-23.13-18.72-18.74-7.88-37.77-15.09-56.85-22.1-19.75-7.26-39.5-14.48-57.62-25.32-17.25-10.32-32.33-23.04-42.5-40.84-.75-1.31-2.63-2.59-4.11-2.77-5.38-.63-10.82-.84-16.24-1.1-8.08-.39-16.17-.63-24.25-1.03-5.91-.3-11.81-.73-17.72-1.17-9.46-.69-18.91-1.43-28.36-2.15-.25.57-.51,1.14-.76,1.7,1.16.88,2.2,2.23,3.51,2.58,15.03,4.1,30.07,8.14,45.16,12.02,12.46,3.21,24.99,6.13,37.45,9.32,1.65.42,3.07,1.71,4.6,2.6l-.52,1.04c-31.25,2.96-62.49,5.92-94.32,8.94.81,1.91,1.05,3.23,1.43,3.27,31.04,3.18,62.08,6.26,94.73,9.5-2.43,1.55-3.66,2.81-5.13,3.2-13.21,3.47-26.46,6.8-39.71,10.14-14.65,3.69-29.32,7.3-43.94,11.1-1.21.32-2.11,1.83-3.16,2.79.29.52.57,1.03.86,1.55,6.22-.47,12.44-1.05,18.67-1.4,18.58-1.05,37.18-1.99,55.76-3.03,6.32-.35,12.62-.87,18.93-1.31.19.68.39,1.36.58,2.04-27.76,13.04-56.28,24.43-84.25,37.94,1.4,1.18,2.91,2.26,4.34,2.16,2.02-.14,3.93-1.32,5.96-1.77,21.99-4.96,43.99-9.88,66-14.77,5.45-1.21,10.93-2.29,16.4-3.42.36.66.72,1.33,1.08,1.99-25.22,16.89-50.9,33.13-76,50.74,1.9.83,3.8,1.33,5.26.75,24.68-9.88,49.3-19.93,73.96-29.85,3.06-1.23,6.34-1.91,9.51-2.84l.56,1.36c-.83.96-1.58,2.01-2.52,2.86-6.82,6.2-13.76,12.26-20.5,18.54-7.52,6.99-14.85,14.18-22.3,21.25-5.51,5.23-11.11,10.38-16.59,15.64-1.08,1.04-1.82,2.45-2.71,3.69,1.6,0,3.56.59,4.75-.11,9-5.33,17.85-10.91,27.37-16.84M248.27,221.59c-.51-2.2-.98-4.4-1.52-6.59-5.82-23.4-11.63-46.8-17.48-70.19-3.48-13.94-7.02-27.86-10.53-41.79l-1.16-.09c-14.34,57.97-28.67,115.93-43.02,173.95h87.41c-4.63-18.41-9.16-36.42-13.7-55.29M684.25,300.51c-8.1-5.15-16.2-10.29-25.2-16.02.51,7.58.97,14.37,1.45,21.44,6.02,2.37,12.12,4.77,18.22,7.19,14.29,5.65,28.55,11.35,42.88,16.91,1.37.53,3.07.22,4.62.31.14-.61.27-1.22.41-1.83-13.95-9.15-27.9-18.3-42.38-27.99M305.59,148.09c-5.05-1.02-10.08-2.15-15.15-2.99-1.64-.27-3.4.23-5.1.38-.07.61-.13,1.22-.2,1.83,25.17,11.03,50.33,22.06,76.02,33.32-2.19-6.52-4.69-11.87-5.59-17.48-.54-3.34-2.16-4.17-4.46-4.69-14.92-3.37-29.86-6.6-45.51-10.37M679.91,339.02c-6.53-6.12-13.06-12.24-20.3-19.03-.71,6.47-1.28,11.72-1.83,16.82,12.88,7.95,25.68,15.9,38.55,23.75,1.94,1.19,4.25,2.96,6.17-.76-7.3-6.92-14.58-13.82-22.58-20.78M330.29,130.56c7.11,4.61,14.21,9.22,21.82,14.17-.42-6.06-.78-11.25-1.16-16.57-2.63-1.03-5.33-2.07-8.02-3.15-11.74-4.71-23.45-9.48-35.23-14.08-1.3-.51-2.97-.07-4.47-.07-.06.62-.12,1.24-.18,1.85,8.9,5.77,17.8,11.54,27.24,17.84M651.58,362.21c-3.63,6.28-2.44,11.21,4.04,14.73.7.38,1.16,1.18,1.78,1.73,3.57,3.13,7.09,6.33,10.79,9.29.73.58,2.2.24,3.34.32-.01-1.16.45-2.66-.1-3.43-5.78-7.99-11.72-15.87-17.68-23.73-.1-.14-1.05.37-2.17,1.08M351.92,92.17c-7.56-4.6-15.12-9.21-23.08-14.05-.54,5.41,8.41,14.77,23.42,25.62,0-3.71,0-7.28-.34-11.58h0Z"/>
</svg>