<?xml version="1.0" encoding="UTF-8"?>
<!DOCTYPE svg PUBLIC "-//W3C//DTD SVG 1.1//EN" "http://www.w3.org/Graphics/SVG/1.1/DTD/svg11.dtd">
<svg xmlns="http://www.w3.org/2000/svg" version="1.1" width="332px" height="152px" style="shape-rendering:geometricPrecision; text-rendering:geometricPrecision; image-rendering:optimizeQuality; fill-rule:evenodd; clip-rule:evenodd" xmlns:xlink="http://www.w3.org/1999/xlink">
<g><path style="opacity:1" fill="#fdfdfe" d="M -0.5,-0.5 C 110.167,-0.5 220.833,-0.5 331.5,-0.5C 331.5,50.1667 331.5,100.833 331.5,151.5C 220.833,151.5 110.167,151.5 -0.5,151.5C -0.5,100.833 -0.5,50.1667 -0.5,-0.5 Z"/></g>
<g><path style="opacity:1" fill="#96bbd3" d="M 329.5,3.5 C 316.788,2.8536 304.455,3.52026 292.5,5.5C 291.596,4.79105 291.263,3.79105 291.5,2.5C 304.344,2.17132 317.011,2.50465 329.5,3.5 Z"/></g>
<g><path style="opacity:1" fill="#3282b1" d="M 71.5,27.5 C 64.3134,27.8245 57.3134,27.4912 50.5,26.5C 54.9123,16.2475 61.7457,7.91414 71,1.5C 71.4998,10.1603 71.6664,18.8269 71.5,27.5 Z"/></g>
<g><path style="opacity:1" fill="#a3c4d9" d="M 150.5,3.5 C 150.56,2.95691 150.893,2.62358 151.5,2.5C 152.821,10.9909 152.821,19.3242 151.5,27.5C 151.826,19.3159 151.492,11.3159 150.5,3.5 Z"/></g>
<g><path style="opacity:1" fill="#3684b2" d="M 200.5,5.5 C 196.5,5.5 192.5,5.5 188.5,5.5C 188.5,35.1667 188.5,64.8333 188.5,94.5C 192.5,94.5 196.5,94.5 200.5,94.5C 194.705,95.8296 188.538,96.4962 182,96.5C 175.833,96.1667 169.667,95.8333 163.5,95.5C 167.445,94.5091 171.445,94.1758 175.5,94.5C 175.5,64.8333 175.5,35.1667 175.5,5.5C 171.5,5.5 167.5,5.5 163.5,5.5C 163.5,4.5 163.5,3.5 163.5,2.5C 175.833,2.5 188.167,2.5 200.5,2.5C 200.5,3.5 200.5,4.5 200.5,5.5 Z"/></g>
<g><path style="opacity:1" fill="#3c86b4" d="M 253.5,5.5 C 252.502,34.9953 252.169,64.662 252.5,94.5C 257.167,94.5 261.833,94.5 266.5,94.5C 260.034,95.8303 253.201,96.497 246,96.5C 239.167,96.1667 232.333,95.8333 225.5,95.5C 230.12,94.5067 234.786,94.1734 239.5,94.5C 239.5,64.8333 239.5,35.1667 239.5,5.5C 225.652,3.00171 216.485,8.33504 212,21.5C 210.986,25.2252 209.819,28.8919 208.5,32.5C 207.369,22.5012 207.369,12.5012 208.5,2.5C 233.5,2.5 258.5,2.5 283.5,2.5C 284.119,10.8306 284.786,19.1639 285.5,27.5C 285.167,29.1667 284.833,30.8333 284.5,32.5C 282.049,27.3209 279.882,21.9875 278,16.5C 272.586,7.04785 264.419,3.38118 253.5,5.5 Z"/></g>
<g><path style="opacity:1" fill="#3583b2" d="M 329.5,3.5 C 325.971,5.42277 321.971,6.08943 317.5,5.5C 317.5,35.1667 317.5,64.8333 317.5,94.5C 321.971,93.9106 325.971,94.5772 329.5,96.5C 317.149,96.8324 304.815,96.499 292.5,95.5C 296.445,94.5091 300.445,94.1758 304.5,94.5C 304.831,64.662 304.498,34.9953 303.5,5.5C 299.833,5.5 296.167,5.5 292.5,5.5C 304.455,3.52026 316.788,2.8536 329.5,3.5 Z"/></g>
<g><path style="opacity:1" fill="#3b85b3" d="M 56.5,2.5 C 57.2389,2.36899 57.9056,2.53566 58.5,3C 51.7983,10.2271 46.4649,18.3937 42.5,27.5C 34.1866,28.6651 25.8533,28.8317 17.5,28C 28.274,15.9558 41.274,7.45582 56.5,2.5 Z"/></g>
<g><path style="opacity:1" fill="#c9dce8" d="M 253.5,5.5 C 253.5,34.8333 253.5,64.1667 253.5,93.5C 258.032,93.1818 262.366,93.5151 266.5,94.5C 261.833,94.5 257.167,94.5 252.5,94.5C 252.169,64.662 252.502,34.9953 253.5,5.5 Z"/></g>
<g><path style="opacity:1" fill="#3985b3" d="M 150.5,3.5 C 151.492,11.3159 151.826,19.3159 151.5,27.5C 149.122,23.7533 146.955,19.7533 145,15.5C 134.236,3.56633 121.736,1.39966 107.5,9C 102.668,13.8316 99.8345,19.6649 99,26.5C 98.0878,43.8724 98.4212,61.2058 100,78.5C 102.849,89.5063 110.016,95.1729 121.5,95.5C 130.267,95.5258 137.434,92.1925 143,85.5C 145.863,80.4328 148.696,75.4328 151.5,70.5C 152.498,79.1411 152.831,87.8078 152.5,96.5C 151.325,96.719 150.325,96.3857 149.5,95.5C 148.444,93.3542 146.944,91.6875 145,90.5C 118.395,104.366 98.728,97.6994 86,70.5C 78.3259,47.4969 82.8259,27.3303 99.5,10C 114.671,-1.15299 130.004,-1.31965 145.5,9.5C 147.185,7.42927 148.852,5.42927 150.5,3.5 Z"/></g>
<g><path style="opacity:1" fill="#e7eef4" d="M 200.5,5.5 C 197.038,6.48164 193.371,6.81497 189.5,6.5C 189.5,35.5 189.5,64.5 189.5,93.5C 193.371,93.185 197.038,93.5184 200.5,94.5C 196.5,94.5 192.5,94.5 188.5,94.5C 188.5,64.8333 188.5,35.1667 188.5,5.5C 192.5,5.5 196.5,5.5 200.5,5.5 Z"/></g>
<g><path style="opacity:1" fill="#d4e2ed" d="M 303.5,5.5 C 304.498,34.9953 304.831,64.662 304.5,94.5C 300.445,94.1758 296.445,94.5091 292.5,95.5C 304.815,96.499 317.149,96.8324 329.5,96.5C 317.011,97.4954 304.344,97.8287 291.5,97.5C 291.5,96.1667 291.5,94.8333 291.5,93.5C 295.5,93.5 299.5,93.5 303.5,93.5C 303.5,64.1667 303.5,34.8333 303.5,5.5 Z"/></g>
<g><path style="opacity:1" fill="#8cb1ce" d="M 50.5,26.5 C 57.3134,27.4912 64.3134,27.8245 71.5,27.5C 64.3231,28.8194 56.9898,28.8194 49.5,27.5C 49.6236,26.8933 49.9569,26.56 50.5,26.5 Z"/></g>
<g><path style="opacity:1" fill="#3583b2" d="M 46.5,35.5 C 54.8333,35.5 63.1667,35.5 71.5,35.5C 71.5,47.5 71.5,59.5 71.5,71.5C 61.8333,71.5 52.1667,71.5 42.5,71.5C 42.2411,59.3144 43.5744,47.3144 46.5,35.5 Z"/></g>
<g><path style="opacity:1" fill="#3583b2" d="M 12.5,35.5 C 21.5,35.5 30.5,35.5 39.5,35.5C 36.1546,47.2513 34.488,59.2513 34.5,71.5C 23.5,71.5 12.5,71.5 1.5,71.5C 1.76949,58.4123 5.43616,46.4123 12.5,35.5 Z"/></g>
<g><path style="opacity:1" fill="#dae5ee" d="M 71.5,78.5 C 72.4952,90.6554 72.8286,102.989 72.5,115.5C 63.9832,115.826 55.6499,115.493 47.5,114.5C 55.5,114.5 63.5,114.5 71.5,114.5C 71.5,102.5 71.5,90.5 71.5,78.5 Z"/></g>
<g><path style="opacity:1" fill="#3583b2" d="M 39.5,113.5 C 30.6822,114.493 21.6822,114.827 12.5,114.5C 5.6239,103.534 1.95723,91.5344 1.5,78.5C 12.5,78.5 23.5,78.5 34.5,78.5C 34.6849,90.3999 36.3515,102.067 39.5,113.5 Z"/></g>
<g><path style="opacity:1" fill="#3382b1" d="M 71.5,78.5 C 71.5,90.5 71.5,102.5 71.5,114.5C 63.5,114.5 55.5,114.5 47.5,114.5C 44.0458,102.881 42.3791,90.8808 42.5,78.5C 52.1667,78.5 61.8333,78.5 71.5,78.5 Z"/></g>
<g><path style="opacity:1" fill="#838483" d="M 173.5,112.5 C 170.061,112.253 166.728,112.586 163.5,113.5C 163.5,113.167 163.5,112.833 163.5,112.5C 166.833,109.833 170.167,109.833 173.5,112.5 Z"/></g>
<g><path style="opacity:1" fill="#515251" d="M 106.5,129.5 C 105.833,129.5 105.5,129.167 105.5,128.5C 107.39,128.703 108.89,128.037 110,126.5C 113.409,115.601 109.575,110.935 98.5,112.5C 98.5,117.833 98.5,123.167 98.5,128.5C 98.5,129.167 98.5,129.833 98.5,130.5C 98.5,135.833 98.5,141.167 98.5,146.5C 96.8333,147.833 95.1667,147.833 93.5,146.5C 93.5,135.167 93.5,123.833 93.5,112.5C 95.3994,111.251 100.733,111.084 109.5,112C 117.036,115.595 118.369,120.762 113.5,127.5C 111.382,128.946 109.049,129.613 106.5,129.5 Z"/></g>
<g><path style="opacity:1" fill="#4d4e4d" d="M 137.5,129.5 C 136.833,129.5 136.167,129.5 135.5,129.5C 135.5,128.833 135.5,128.167 135.5,127.5C 140.987,125.862 142.82,122.195 141,116.5C 140.5,114.667 139.333,113.5 137.5,113C 134.854,112.503 132.187,112.336 129.5,112.5C 129.5,117.5 129.5,122.5 129.5,127.5C 129.5,128.167 129.5,128.833 129.5,129.5C 129.5,135.167 129.5,140.833 129.5,146.5C 127.833,147.833 126.167,147.833 124.5,146.5C 124.5,135.167 124.5,123.833 124.5,112.5C 126.399,111.251 131.733,111.084 140.5,112C 146.158,113.829 147.992,117.663 146,123.5C 143.636,126.318 140.803,128.318 137.5,129.5 Z"/></g>
<g><path style="opacity:1" fill="#515251" d="M 240.5,129.5 C 239.624,129.631 238.957,129.298 238.5,128.5C 243.829,126.173 245.662,122.173 244,116.5C 243.5,114.667 242.333,113.5 240.5,113C 237.854,112.503 235.187,112.336 232.5,112.5C 232.5,123.833 232.5,135.167 232.5,146.5C 230.833,147.833 229.167,147.833 227.5,146.5C 227.5,135.167 227.5,123.833 227.5,112.5C 229.399,111.251 234.733,111.084 243.5,112C 248.853,113.54 251.019,117.04 250,122.5C 247.495,125.853 244.329,128.186 240.5,129.5 Z"/></g>
<g><path style="opacity:1" fill="#505150" d="M 314.5,123.5 C 312.712,131.7 310.212,139.7 307,147.5C 303.335,136.178 299.669,124.845 296,113.5C 295.5,124.495 295.333,135.495 295.5,146.5C 296.425,147.788 296.092,147.788 294.5,146.5C 294.5,135.167 294.5,123.833 294.5,112.5C 293.127,112.657 291.793,112.49 290.5,112C 294.152,111.501 297.818,111.335 301.5,111.5C 303.689,120.236 306.189,128.903 309,137.5C 310.763,132.694 312.596,128.028 314.5,123.5 Z"/></g>
<g><path style="opacity:1" fill="#525352" d="M 314.5,123.5 C 314.883,119.681 315.883,116.014 317.5,112.5C 325.473,111.349 327.473,111.349 323.5,112.5C 323.5,123.833 323.5,135.167 323.5,146.5C 321.833,147.833 320.167,147.833 318.5,146.5C 318.667,135.828 318.5,125.161 318,114.5C 317.1,117.718 315.933,120.718 314.5,123.5 Z"/></g>
<g><path style="opacity:1" fill="#fbfbfb" d="M 105.5,128.5 C 103.167,128.5 100.833,128.5 98.5,128.5C 98.5,123.167 98.5,117.833 98.5,112.5C 109.575,110.935 113.409,115.601 110,126.5C 108.89,128.037 107.39,128.703 105.5,128.5 Z"/></g>
<g><path style="opacity:1" fill="#fbfbfb" d="M 135.5,127.5 C 133.5,127.5 131.5,127.5 129.5,127.5C 129.5,122.5 129.5,117.5 129.5,112.5C 132.187,112.336 134.854,112.503 137.5,113C 139.333,113.5 140.5,114.667 141,116.5C 142.82,122.195 140.987,125.862 135.5,127.5 Z"/></g>
<g><path style="opacity:1" fill="#fafafa" d="M 173.5,112.5 C 177.898,117.04 179.564,122.54 178.5,129C 179.526,135.75 177.859,141.583 173.5,146.5C 171.167,146.5 168.833,146.5 166.5,146.5C 162.921,146.089 160.754,144.089 160,140.5C 159.333,133.167 159.333,125.833 160,118.5C 160.697,116.416 161.864,114.749 163.5,113.5C 166.728,112.586 170.061,112.253 173.5,112.5 Z"/></g>
<g><path style="opacity:1" fill="#535453" d="M 275.5,136.5 C 275.737,135.209 275.404,134.209 274.5,133.5C 273.507,128.687 272.007,124.02 270,119.5C 268.06,124.49 266.226,129.49 264.5,134.5C 264.5,135.167 264.5,135.833 264.5,136.5C 263.687,138.261 262.687,139.928 261.5,141.5C 264.106,131.18 267.606,121.18 272,111.5C 276.587,122.259 280.587,133.259 284,144.5C 285.098,145.967 286.598,146.801 288.5,147C 283.833,147.667 279.167,147.667 274.5,147C 276.167,146.667 277.833,146.333 279.5,146C 278.243,142.709 276.91,139.542 275.5,136.5 Z"/></g>
<g><path style="opacity:1" fill="#b9cee0" d="M 39.5,113.5 C 40.0431,113.56 40.3764,113.893 40.5,114.5C 31.0082,115.822 21.6749,115.822 12.5,114.5C 21.6822,114.827 30.6822,114.493 39.5,113.5 Z"/></g>
<g><path style="opacity:1" fill="#4f514f" d="M 173.5,112.5 C 176.195,112.933 178.362,114.266 180,116.5C 186.608,127.243 185.442,137.077 176.5,146C 175.552,146.483 174.552,146.649 173.5,146.5C 177.859,141.583 179.526,135.75 178.5,129C 179.564,122.54 177.898,117.04 173.5,112.5 Z"/></g>
<g><path style="opacity:1" fill="#525352" d="M 199.5,146.5 C 194.073,144.899 190.907,141.233 190,135.5C 187.133,122.555 191.966,114.222 204.5,110.5C 207.316,111.105 209.983,112.105 212.5,113.5C 213.478,113.023 214.311,112.357 215,111.5C 215.667,114.833 215.667,118.167 215,121.5C 212.959,113.896 208.126,111.063 200.5,113C 198.448,113.93 196.948,115.43 196,117.5C 195.333,125.5 195.333,133.5 196,141.5C 196.997,143.323 198.164,144.99 199.5,146.5 Z"/></g>
<g><path style="opacity:1" fill="#505150" d="M 163.5,112.5 C 163.5,112.833 163.5,113.167 163.5,113.5C 161.864,114.749 160.697,116.416 160,118.5C 159.333,125.833 159.333,133.167 160,140.5C 160.754,144.089 162.921,146.089 166.5,146.5C 166.5,147.167 166.167,147.5 165.5,147.5C 157.539,144.27 153.539,138.27 153.5,129.5C 153.534,121.748 156.867,116.082 163.5,112.5 Z"/></g>
<g><path style="opacity:1" fill="#f5f5f5" d="M 274.5,133.5 C 271.375,134.479 268.042,134.813 264.5,134.5C 266.226,129.49 268.06,124.49 270,119.5C 272.007,124.02 273.507,128.687 274.5,133.5 Z"/></g>
<g><path style="opacity:1" fill="#3683b2" d="M 18.5,123.5 C 26.3225,122.344 34.3225,122.177 42.5,123C 46.2645,132.088 51.5978,140.088 58.5,147C 42.6572,143.574 29.3238,135.74 18.5,123.5 Z"/></g>
<g><path style="opacity:1" fill="#3382b1" d="M 50.5,122.5 C 57.5,122.5 64.5,122.5 71.5,122.5C 71.6664,131.173 71.4998,139.84 71,148.5C 61.3839,142.048 54.5505,133.381 50.5,122.5 Z"/></g>
<g><path style="opacity:1" fill="#a2a3a2" d="M 129.5,127.5 C 131.5,127.5 133.5,127.5 135.5,127.5C 135.5,128.167 135.5,128.833 135.5,129.5C 133.5,129.5 131.5,129.5 129.5,129.5C 129.5,128.833 129.5,128.167 129.5,127.5 Z"/></g>
<g><path style="opacity:1" fill="#a1a2a1" d="M 98.5,128.5 C 100.833,128.5 103.167,128.5 105.5,128.5C 105.5,129.167 105.833,129.5 106.5,129.5C 104.052,130.473 101.385,130.806 98.5,130.5C 98.5,129.833 98.5,129.167 98.5,128.5 Z"/></g>
<g><path style="opacity:1" fill="#505150" d="M 137.5,129.5 C 140.099,129.549 142.266,130.549 144,132.5C 145.19,136.381 145.857,140.381 146,144.5C 147.098,145.967 148.598,146.801 150.5,147C 147.331,147.978 144.497,147.478 142,145.5C 140.81,141.619 140.143,137.619 140,133.5C 139.338,132.016 138.504,130.683 137.5,129.5 Z"/></g>
<g><path style="opacity:1" fill="#525352" d="M 240.5,129.5 C 245.4,129.898 248.233,132.565 249,137.5C 249.498,140.482 249.665,143.482 249.5,146.5C 251.199,146.34 252.866,146.506 254.5,147C 251.208,147.936 248.208,147.436 245.5,145.5C 243.882,141.356 243.049,137.022 243,132.5C 241.955,131.627 241.122,130.627 240.5,129.5 Z"/></g>
<g><path style="opacity:1" fill="#afb0af" d="M 216.5,136.5 C 215.081,135.549 213.415,135.216 211.5,135.5C 211.795,137.735 211.461,139.735 210.5,141.5C 210.5,139.833 210.5,138.167 210.5,136.5C 208.712,136.785 207.045,136.452 205.5,135.5C 210.5,134.167 215.5,134.167 220.5,135.5C 219.311,136.429 217.978,136.762 216.5,136.5 Z"/></g>
<g><path style="opacity:1" fill="#a3a4a3" d="M 274.5,133.5 C 275.404,134.209 275.737,135.209 275.5,136.5C 271.833,136.5 268.167,136.5 264.5,136.5C 264.5,135.833 264.5,135.167 264.5,134.5C 268.042,134.813 271.375,134.479 274.5,133.5 Z"/></g>
<g><path style="opacity:1" fill="#4d4e4d" d="M 216.5,136.5 C 215.946,142.719 212.613,146.386 206.5,147.5C 205.833,147.5 205.5,147.167 205.5,146.5C 208.167,145.833 209.833,144.167 210.5,141.5C 211.461,139.735 211.795,137.735 211.5,135.5C 213.415,135.216 215.081,135.549 216.5,136.5 Z"/></g>
<g><path style="opacity:1" fill="#989898" d="M 166.5,146.5 C 168.833,146.5 171.167,146.5 173.5,146.5C 170.96,148.413 168.293,148.746 165.5,147.5C 166.167,147.5 166.5,147.167 166.5,146.5 Z"/></g>
<g><path style="opacity:1" fill="#5e5f5e" d="M 261.5,141.5 C 261.714,143.144 261.38,144.644 260.5,146C 262.167,146.333 263.833,146.667 265.5,147C 259.022,147.861 257.022,147.694 259.5,146.5C 259.402,144.447 260.069,142.78 261.5,141.5 Z"/></g>
<g><path style="opacity:1" fill="#9d9e9d" d="M 199.5,146.5 C 201.5,146.5 203.5,146.5 205.5,146.5C 205.5,147.167 205.833,147.5 206.5,147.5C 203.988,148.867 201.655,148.534 199.5,146.5 Z"/></g>
</svg>
