<?xml version="1.0" encoding="UTF-8"?>
<!DOCTYPE svg PUBLIC "-//W3C//DTD SVG 1.1//EN" "http://www.w3.org/Graphics/SVG/1.1/DTD/svg11.dtd">
<svg xmlns="http://www.w3.org/2000/svg" version="1.1" width="250px" height="250px" style="shape-rendering:geometricPrecision; text-rendering:geometricPrecision; image-rendering:optimizeQuality; fill-rule:evenodd; clip-rule:evenodd" xmlns:xlink="http://www.w3.org/1999/xlink">
<g><path style="opacity:0.939" fill="#668ffa" d="M 48.5,-0.5 C 49.1667,-0.5 49.8333,-0.5 50.5,-0.5C 73.4334,15.6445 96.4334,31.8112 119.5,48C 111.333,54.8333 103.833,62.3333 97,70.5C 90.9706,79.2349 85.4706,88.2349 80.5,97.5C 71.967,91.8025 63.3003,86.3025 54.5,81C 49.8379,76.5467 47.8379,71.0467 48.5,64.5C 48.8333,62.1667 49.1667,59.8333 49.5,57.5C 55.634,61.136 61.634,64.9694 67.5,69C 69.6406,69.8837 71.3073,69.3837 72.5,67.5C 65.1096,61.2845 57.2762,55.6179 49,50.5C 48.1697,44.4724 48.3364,38.4724 49.5,32.5C 61.4719,40.6389 73.3052,48.9722 85,57.5C 86.3076,55.3586 87.8076,53.3586 89.5,51.5C 76.1244,42.056 62.6244,32.7227 49,23.5C 48.5003,15.5069 48.3336,7.50694 48.5,-0.5 Z"/></g>
<g><path style="opacity:0.942" fill="#668ffa" d="M 195.5,-0.5 C 196.167,-0.5 196.833,-0.5 197.5,-0.5C 197.666,7.50694 197.5,15.5069 197,23.5C 183.376,32.7227 169.876,42.056 156.5,51.5C 158.192,53.3586 159.692,55.3586 161,57.5C 172.695,48.9722 184.528,40.6389 196.5,32.5C 197.664,38.4724 197.83,44.4724 197,50.5C 188.864,55.8115 181.03,61.4781 173.5,67.5C 174.693,69.3837 176.359,69.8837 178.5,69C 184.366,64.9694 190.366,61.136 196.5,57.5C 197.807,63.5403 197.64,69.5403 196,75.5C 194.878,77.6238 193.378,79.4571 191.5,81C 182.7,86.3025 174.033,91.8025 165.5,97.5C 160.529,88.2349 155.029,79.2349 149,70.5C 142.167,62.3333 134.667,54.8333 126.5,48C 149.567,31.8112 172.567,15.6445 195.5,-0.5 Z"/></g>
<g><path style="opacity:0.954" fill="#002fb5" d="M 118.5,129.5 C 107.049,119.603 95.382,109.936 83.5,100.5C 89.9658,86.388 98.2991,73.5547 108.5,62C 111.995,58.7492 115.995,56.2492 120.5,54.5C 121.666,66.8198 121.833,79.1532 121,91.5C 117.552,95.237 117.719,98.737 121.5,102C 125.534,102.976 127.534,101.309 127.5,97C 127.375,95.3732 126.875,93.8732 126,92.5C 125.167,79.8202 125.334,67.1535 126.5,54.5C 134.718,58.8821 141.551,64.8821 147,72.5C 152.89,81.6141 157.724,91.2808 161.5,101.5C 161.471,103.029 160.804,104.196 159.5,105C 147.306,114.027 134.973,122.861 122.5,131.5C 121.378,130.37 120.044,129.703 118.5,129.5 Z"/></g>
<g><path style="opacity:0.928" fill="#668ffa" d="M 118.5,129.5 C 119.508,131.339 121.008,132.672 123,133.5C 135.028,124.639 147.194,115.973 159.5,107.5C 160.667,139.161 160.833,170.828 160,202.5C 151.81,178.115 139.477,156.115 123,136.5C 106.528,156.104 94.1945,178.104 86,202.5C 85.1668,170.828 85.3334,139.161 86.5,107.5C 96.9277,115.275 107.594,122.608 118.5,129.5 Z M 135.5,193.5 C 141.454,192.128 141.954,193.461 137,197.5C 136.508,196.451 136.674,195.451 137.5,194.5C 137.043,193.702 136.376,193.369 135.5,193.5 Z"/></g>
<g><path style="opacity:0.646" fill="#000000" d="M 108.5,198.5 C 105.232,201.299 101.565,203.299 97.5,204.5C 97.9629,201.518 98.2962,198.518 98.5,195.5C 99.552,195.649 100.552,195.483 101.5,195C 91.6849,194.385 91.0183,191.552 99.5,186.5C 100.932,186.733 101.432,187.4 101,188.5C 99.5806,189.46 98.0806,190.293 96.5,191C 106.761,191.49 116.928,190.657 127,188.5C 127.833,188.833 128.667,189.167 129.5,189.5C 120.755,192.347 111.755,194.014 102.5,194.5C 102.34,196.199 102.506,197.866 103,199.5C 104.586,198.624 106.086,197.624 107.5,196.5C 108.298,196.957 108.631,197.624 108.5,198.5 Z"/></g>
<g><path style="opacity:0.619" fill="#000000" d="M 135.5,193.5 C 132.069,195.388 128.402,195.888 124.5,195C 125.167,194.333 125.833,193.667 126.5,193C 129.98,192.699 133.313,191.865 136.5,190.5C 138.908,185.089 140.742,185.423 142,191.5C 145.133,187.433 147.133,187.766 148,192.5C 146.853,193.458 145.853,193.125 145,191.5C 143.207,194.295 141.04,196.795 138.5,199C 141.672,199.151 143.839,197.651 145,194.5C 145.167,195.167 145.333,195.833 145.5,196.5C 143.695,199.422 141.361,201.922 138.5,204C 135.729,203.653 133.062,203.82 130.5,204.5C 130.197,201.412 131.53,199.746 134.5,199.5C 134.517,197.435 134.85,195.435 135.5,193.5 Z M 135.5,193.5 C 136.376,193.369 137.043,193.702 137.5,194.5C 136.674,195.451 136.508,196.451 137,197.5C 141.954,193.461 141.454,192.128 135.5,193.5 Z"/></g>
<g><path style="opacity:0.528" fill="#000000" d="M 122.5,192.5 C 123.782,193.708 123.782,195.042 122.5,196.5C 121.374,195.192 121.374,193.858 122.5,192.5 Z"/></g>
<g><path style="opacity:0.472" fill="#000000" d="M 108.5,198.5 C 109.151,197.909 109.818,197.243 110.5,196.5C 110.833,197 111.167,197.5 111.5,198C 111.165,200.577 110.165,202.744 108.5,204.5C 108.254,202.78 108.254,200.78 108.5,198.5 Z"/></g>
<g><path style="opacity:0.523" fill="#000000" d="M 120.5,202.5 C 119.833,202.5 119.5,202.833 119.5,203.5C 118.175,204.953 117.342,204.619 117,202.5C 115.933,204.283 114.433,204.783 112.5,204C 113.167,203.333 113.833,202.667 114.5,202C 113.179,200.455 113.512,199.289 115.5,198.5C 116.799,199.09 117.632,200.09 118,201.5C 119.935,194.844 120.768,195.178 120.5,202.5 Z"/></g>
<g><path style="opacity:0.478" fill="#000000" d="M 128.5,196.5 C 129.898,199.356 129.398,202.022 127,204.5C 126.282,201.593 126.782,198.926 128.5,196.5 Z"/></g>
<g><path style="opacity:0.482" fill="#000000" d="M 147.5,196.5 C 148.376,196.369 149.043,196.702 149.5,197.5C 148.949,200.056 147.949,202.389 146.5,204.5C 146.167,204.167 145.833,203.833 145.5,203.5C 146.325,201.199 146.992,198.865 147.5,196.5 Z"/></g>
<g><path style="opacity:0.427" fill="#000000" d="M 119.5,203.5 C 120.167,203.5 120.5,203.167 120.5,202.5C 122.257,201.708 123.591,200.375 124.5,198.5C 124.833,198.833 125.167,199.167 125.5,199.5C 125.144,203.907 123.144,205.24 119.5,203.5 Z"/></g>
<g><path style="opacity:0.623" fill="#000000" d="M 150.5,198.5 C 151.5,198.5 152.5,198.5 153.5,198.5C 153.66,200.199 153.494,201.866 153,203.5C 149.526,204.928 149.026,204.428 151.5,202C 150.663,200.989 150.33,199.822 150.5,198.5 Z"/></g>
<g><path style="opacity:0.333" fill="#000000" d="M 139.5,204.5 C 140.773,205.077 140.773,205.743 139.5,206.5C 138.537,206.03 138.537,205.363 139.5,204.5 Z"/></g>
<g><path style="opacity:0.608" fill="#000000" d="M 124.5,209.5 C 125.376,209.369 126.043,209.702 126.5,210.5C 123.464,214.947 119.631,218.613 115,221.5C 112.874,227.872 114.374,228.872 119.5,224.5C 119.833,224.667 120.167,224.833 120.5,225C 119.152,227.513 117.152,229.347 114.5,230.5C 113.959,233.734 112.626,236.567 110.5,239C 106.703,241.511 104.37,240.511 103.5,236C 104.09,233.804 104.757,231.638 105.5,229.5C 106.167,228.167 106.833,228.167 107.5,229.5C 106.137,231.674 105.803,233.841 106.5,236C 110.26,236.415 111.594,234.915 110.5,231.5C 110.894,226.48 112.561,221.98 115.5,218C 114.572,217.612 113.905,216.945 113.5,216C 115.058,209.119 116.891,208.952 119,215.5C 121.04,213.63 122.873,211.63 124.5,209.5 Z"/></g>
<g><path style="opacity:0.627" fill="#000000" d="M 101.5,218.5 C 103.104,219.287 103.771,220.62 103.5,222.5C 97.859,223.704 97.1923,222.371 101.5,218.5 Z"/></g>
<g><path style="opacity:0.491" fill="#000000" d="M 122.5,220.5 C 123.5,220.5 124.5,220.5 125.5,220.5C 125.5,221.833 125.5,223.167 125.5,224.5C 124.5,224.5 123.5,224.5 122.5,224.5C 122.5,223.167 122.5,221.833 122.5,220.5 Z"/></g>
<g><path style="opacity:0.607" fill="#000000" d="M 142.5,220.5 C 143.309,222.292 143.809,224.292 144,226.5C 145.049,224.893 146.549,224.227 148.5,224.5C 148.498,229.353 146.331,231.353 142,230.5C 140.956,231.623 140.29,232.956 140,234.5C 138.667,235.167 137.333,235.833 136,236.5C 136.82,233.602 137.82,230.602 139,227.5C 139.667,228.833 140.333,228.833 141,227.5C 141.29,225.08 141.79,222.746 142.5,220.5 Z"/></g>
<g><path style="opacity:0.551" fill="#000000" d="M 161.5,221.5 C 162.693,221.97 163.36,222.97 163.5,224.5C 163.003,226.818 162.67,229.152 162.5,231.5C 161.448,231.351 160.448,231.517 159.5,232C 158.307,234.027 156.64,235.527 154.5,236.5C 152.259,236.119 149.926,235.952 147.5,236C 149.684,233.984 151.684,231.817 153.5,229.5C 155.655,229.838 157.989,229.838 160.5,229.5C 160.575,226.794 160.908,224.127 161.5,221.5 Z"/></g>
<g><path style="opacity:0.588" fill="#000000" d="M 91.5,224.5 C 93.8542,227.039 94.1876,230.039 92.5,233.5C 91.7261,234.711 90.8928,234.711 90,233.5C 88.6372,238.741 85.4706,240.741 80.5,239.5C 79.2622,236.832 79.2622,234.166 80.5,231.5C 81.1667,230.167 81.8333,230.167 82.5,231.5C 80.8333,235.833 82.1667,237.167 86.5,235.5C 87.919,233.042 88.919,230.375 89.5,227.5C 90.2978,229.078 90.7978,230.744 91,232.5C 91.4974,229.854 91.6641,227.187 91.5,224.5 Z"/></g>
<g><path style="opacity:0.589" fill="#000000" d="M 102.5,227.5 C 103.097,227.735 103.43,228.235 103.5,229C 102.516,230.657 101.516,232.323 100.5,234C 99.451,234.492 98.451,234.326 97.5,233.5C 95.4768,236.52 92.8102,238.854 89.5,240.5C 89.1667,240.167 88.8333,239.833 88.5,239.5C 91.688,237.146 94.3547,234.312 96.5,231C 99.2644,230.994 101.264,229.828 102.5,227.5 Z"/></g>
<g><path style="opacity:0.518" fill="#000000" d="M 125.5,227.5 C 127.758,227.775 128.092,228.775 126.5,230.5C 124.493,232.008 122.826,233.842 121.5,236C 120.365,236.749 119.365,236.583 118.5,235.5C 121.293,233.258 123.626,230.591 125.5,227.5 Z"/></g>
<g><path style="opacity:0.564" fill="#000000" d="M 132.5,227.5 C 134.09,227.628 135.423,228.295 136.5,229.5C 134.575,231.755 132.409,233.755 130,235.5C 129.036,239.796 128.203,244.13 127.5,248.5C 126.719,247.271 126.219,245.938 126,244.5C 124.283,248.275 122.783,247.942 121.5,243.5C 123.237,240.65 125.071,240.316 127,242.5C 127.333,239.833 127.667,237.167 128,234.5C 129.75,232.266 131.25,229.932 132.5,227.5 Z"/></g>
<g><path style="opacity:0.539" fill="#000000" d="M 165.5,227.5 C 168.373,231.479 167.373,234.479 162.5,236.5C 161.429,234.675 162.096,233.508 164.5,233C 163.243,230.924 163.576,229.09 165.5,227.5 Z"/></g>
<g><path style="opacity:0.575" fill="#000000" d="M 84.5,229.5 C 86.561,230.751 86.8943,232.418 85.5,234.5C 83.2957,233.218 82.9624,231.551 84.5,229.5 Z"/></g>
</svg>
