<?xml version="1.0" encoding="UTF-8"?>
<!DOCTYPE svg PUBLIC "-//W3C//DTD SVG 1.1//EN" "http://www.w3.org/Graphics/SVG/1.1/DTD/svg11.dtd">
<svg xmlns="http://www.w3.org/2000/svg" version="1.1" width="280px" height="356px" style="shape-rendering:geometricPrecision; text-rendering:geometricPrecision; image-rendering:optimizeQuality; fill-rule:evenodd; clip-rule:evenodd" xmlns:xlink="http://www.w3.org/1999/xlink">
<g><path style="opacity:1" fill="#6f989b" d="M 72.5,13.5 C 61.8194,10.9266 51.1528,10.9266 40.5,13.5C 45.4425,11.1609 50.7758,9.8276 56.5,9.5C 62.2242,9.8276 67.5575,11.1609 72.5,13.5 Z"/></g>
<g><path style="opacity:1" fill="#dfdee8" d="M 76.5,13.5 C 104.5,13.5 132.5,13.5 160.5,13.5C 160.5,13.8333 160.5,14.1667 160.5,14.5C 133.328,14.1688 106.328,14.5021 79.5,15.5C 78.2905,15.0679 77.2905,14.4013 76.5,13.5 Z"/></g>
<g><path style="opacity:1" fill="#699497" d="M 39.5,13.5 C 35.5079,15.83 31.5079,18.1633 27.5,20.5C 30.4736,16.5502 34.4736,14.2169 39.5,13.5 Z"/></g>
<g><path style="opacity:1" fill="#fbfbfc" d="M 79.5,15.5 C 106.328,14.5021 133.328,14.1688 160.5,14.5C 168.186,15.0857 175.853,15.919 183.5,17C 194.306,20.1987 204.973,23.6987 215.5,27.5C 221.885,32.5487 228.552,37.2154 235.5,41.5C 235.833,42.5 236.5,43.1667 237.5,43.5C 242.174,50.5051 246.841,57.5051 251.5,64.5C 251.5,65.1667 251.5,65.8333 251.5,66.5C 254.193,75.6322 255.859,84.9655 256.5,94.5C 255.785,104.021 254.119,113.354 251.5,122.5C 251.5,122.833 251.5,123.167 251.5,123.5C 247.084,130.664 242.418,137.664 237.5,144.5C 236.833,144.5 236.5,144.833 236.5,145.5C 234.5,146.833 232.833,148.5 231.5,150.5C 225.161,155.174 218.828,159.84 212.5,164.5C 211.209,164.263 210.209,164.596 209.5,165.5C 206.279,165.896 203.612,167.229 201.5,169.5C 193.939,172.11 186.273,174.443 178.5,176.5C 177.479,172.02 176.813,167.353 176.5,162.5C 185.215,160.311 192.882,156.311 199.5,150.5C 199.833,150.5 200.167,150.5 200.5,150.5C 207.09,147.578 212.09,142.911 215.5,136.5C 216.496,136.586 217.329,136.252 218,135.5C 220.393,132.048 222.226,128.381 223.5,124.5C 223.5,124.167 223.5,123.833 223.5,123.5C 225.117,121.879 226.284,119.879 227,117.5C 229.137,110.651 230.303,103.651 230.5,96.5C 243.756,98.7424 249.256,93.0757 247,79.5C 242.596,70.6035 235.429,66.6035 225.5,67.5C 225.771,65.6203 225.104,64.287 223.5,63.5C 223.5,63.1667 223.5,62.8333 223.5,62.5C 220.375,55.695 215.709,50.0284 209.5,45.5C 208.337,43.0178 206.337,41.6845 203.5,41.5C 201.109,39.6378 198.442,38.3045 195.5,37.5C 195.423,36.2502 194.756,35.4169 193.5,35C 183.858,31.2259 173.858,29.0593 163.5,28.5C 140.339,27.5025 117.006,27.1691 93.5,27.5C 89.1278,23.1256 84.4611,19.1256 79.5,15.5 Z"/></g>
<g><path style="opacity:1" fill="#739b9e" d="M 72.5,13.5 C 73.8333,13.5 75.1667,13.5 76.5,13.5C 77.2905,14.4013 78.2905,15.0679 79.5,15.5C 84.4611,19.1256 89.1278,23.1256 93.5,27.5C 93.8333,28.1667 94.1667,28.8333 94.5,29.5C 96.6825,32.8637 98.0159,36.5304 98.5,40.5C 96.963,37.1 95.1297,33.7667 93,30.5C 89.6584,27.4908 86.6584,24.1575 84,20.5C 80.2383,17.8747 76.405,15.5413 72.5,13.5 Z"/></g>
<g><path style="opacity:1" fill="#776f9c" d="M 160.5,14.5 C 160.5,14.1667 160.5,13.8333 160.5,13.5C 180.224,13.1064 198.557,17.773 215.5,27.5C 204.973,23.6987 194.306,20.1987 183.5,17C 175.853,15.919 168.186,15.0857 160.5,14.5 Z"/></g>
<g><path style="opacity:1" fill="#867ea6" d="M 93.5,27.5 C 117.006,27.1691 140.339,27.5025 163.5,28.5C 161.901,28.2322 160.568,28.5655 159.5,29.5C 137.833,29.5 116.167,29.5 94.5,29.5C 94.1667,28.8333 93.8333,28.1667 93.5,27.5 Z"/></g>
<g><path style="opacity:1" fill="#e5eced" d="M 72.5,13.5 C 76.405,15.5413 80.2383,17.8747 84,20.5C 86.6584,24.1575 89.6584,27.4908 93,30.5C 95.1297,33.7667 96.963,37.1 98.5,40.5C 98.5,40.8333 98.5,41.1667 98.5,41.5C 99.8333,50.5 99.8333,59.5 98.5,68.5C 89.7113,89.9017 73.7113,99.5684 50.5,97.5C 46.5,96.8333 42.5,96.1667 38.5,95.5C 32.3834,92.7612 27.3834,88.5945 23.5,83C 22.9056,82.5357 22.2389,82.369 21.5,82.5C 18.8816,78.2595 16.5482,73.9262 14.5,69.5C 13.1996,59.8289 13.1996,50.1622 14.5,40.5C 14.5,39.8333 14.5,39.1667 14.5,38.5C 18.0516,31.9464 22.3849,25.9464 27.5,20.5C 31.5079,18.1633 35.5079,15.83 39.5,13.5C 39.8333,13.5 40.1667,13.5 40.5,13.5C 51.1528,10.9266 61.8194,10.9266 72.5,13.5 Z M 80.5,26.5 C 79.8333,26.5 79.5,26.8333 79.5,27.5C 78.1779,27.33 77.0113,27.6634 76,28.5C 73.897,25.941 72.0637,23.2743 70.5,20.5C 70.3322,17.316 71.6655,16.816 74.5,19C 77.5244,20.5134 80.1911,22.5134 82.5,25C 81.9558,25.7172 81.2891,26.2172 80.5,26.5 Z M 42.5,19.5 C 41.8333,19.5 41.5,19.8333 41.5,20.5C 40.2653,23.3013 38.7653,25.9679 37,28.5C 35.6439,27.6198 34.1439,27.2865 32.5,27.5C 29.473,26.3737 29.1396,24.8737 31.5,23C 34.6728,20.9128 38.0061,19.0795 41.5,17.5C 42.2975,17.9569 42.6309,18.6236 42.5,19.5 Z M 70.5,27.5 C 70.67,28.8221 70.3366,29.9887 69.5,31C 66.1409,31.7713 62.8075,32.6047 59.5,33.5C 58.5037,27.2015 58.1703,20.8682 58.5,14.5C 60.3904,14.2965 61.8904,14.9632 63,16.5C 65.363,20.3447 67.863,24.0113 70.5,27.5 Z M 42.5,27.5 C 45.1661,22.8488 48.3328,18.5155 52,14.5C 52.772,14.6448 53.4387,14.9781 54,15.5C 54.8072,21.4163 54.6406,27.2496 53.5,33C 49.8983,32.5844 46.2316,32.0844 42.5,31.5C 42.5,30.1667 42.5,28.8333 42.5,27.5 Z M 33.5,41.5 C 32.0892,44.7959 31.0892,48.2959 30.5,52C 25.8452,52.4992 21.1785,52.6658 16.5,52.5C 17.1098,43.7757 20.1098,35.9423 25.5,29C 28.9659,30.066 32.2993,31.7327 35.5,34C 34.1328,36.3015 33.4661,38.8015 33.5,41.5 Z M 84.5,28.5 C 87.4278,29.5914 89.5945,31.5914 91,34.5C 93.9457,40.1698 95.7791,46.1698 96.5,52.5C 91.5,52.5 86.5,52.5 81.5,52.5C 81.0227,45.6302 79.6894,38.9635 77.5,32.5C 80.3263,32.0023 82.6597,30.6689 84.5,28.5 Z M 42.5,35.5 C 46.0633,37.3568 49.8966,38.6901 54,39.5C 54.6667,43.5 54.6667,47.5 54,51.5C 48.2588,52.4749 42.4254,52.8082 36.5,52.5C 36.835,46.9925 38.0016,41.6592 40,36.5C 40.6708,35.7476 41.5041,35.4142 42.5,35.5 Z M 70.5,35.5 C 71.4972,35.4701 72.1639,35.9701 72.5,37C 74.3475,41.7068 75.6808,46.5401 76.5,51.5C 70.5368,52.4959 64.5368,52.8293 58.5,52.5C 58.5,47.8333 58.5,43.1667 58.5,38.5C 62.924,38.7276 66.924,37.7276 70.5,35.5 Z M 36.5,56.5 C 42.1764,56.3339 47.8431,56.5006 53.5,57C 54.4667,61.4014 54.8,65.9014 54.5,70.5C 49.7579,71.3577 45.0913,72.191 40.5,73C 37.8356,67.8501 36.5023,62.3501 36.5,56.5 Z M 27.5,81.5 C 20.3159,74.7915 16.6493,66.4582 16.5,56.5C 21.6483,55.9264 26.4816,56.593 31,58.5C 31.6892,64.563 33.1892,70.3964 35.5,76C 32.1769,77.1392 29.5102,78.9725 27.5,81.5 Z M 58.5,56.5 C 64.6828,56.0474 70.6828,56.5474 76.5,58C 75.8547,62.9825 74.5213,67.8159 72.5,72.5C 72,72.8333 71.5,73.1667 71,73.5C 66.93,72.0531 62.7633,71.0531 58.5,70.5C 58.5,65.8333 58.5,61.1667 58.5,56.5 Z M 42.5,82.5 C 42.5,82.1667 42.5,81.8333 42.5,81.5C 42.3601,79.8762 43.0267,78.7096 44.5,78C 47.7568,76.9571 51.0901,76.4571 54.5,76.5C 54.5,82.5 54.5,88.5 54.5,94.5C 53.1266,94.6567 51.7932,94.49 50.5,94C 47.9703,89.9875 45.3036,86.1541 42.5,82.5 Z M 70.5,80.5 C 70.5,80.8333 70.5,81.1667 70.5,81.5C 67.8567,85.4346 65.19,89.4346 62.5,93.5C 61.3112,94.4287 59.9778,94.762 58.5,94.5C 58.5,88.5 58.5,82.5 58.5,76.5C 61.9099,76.4571 65.2432,76.9571 68.5,78C 69.756,78.4169 70.4226,79.2502 70.5,80.5 Z M 82.5,56.5 C 86.8461,56.3343 91.1794,56.501 95.5,57C 95.6308,66.2706 92.4641,74.4373 86,81.5C 83.086,79.2288 80.2527,77.0622 77.5,75C 79.6144,68.9153 81.2811,62.7486 82.5,56.5 Z M 42.5,89.5 C 42.5299,90.4972 42.0299,91.1639 41,91.5C 37.1855,90.2612 33.8522,88.2612 31,85.5C 30.5304,84.4232 30.6971,83.4232 31.5,82.5C 33.5753,82.3016 35.5753,82.1349 37.5,82C 39.3141,84.4795 40.9808,86.9795 42.5,89.5 Z M 80.5,82.5 C 80.5,83.1667 80.8333,83.5 81.5,83.5C 82.525,83.8966 82.6917,84.5632 82,85.5C 78.7121,87.8933 75.2121,89.8933 71.5,91.5C 70.6143,90.675 70.281,89.675 70.5,88.5C 72.0075,86.8185 73.0075,84.8185 73.5,82.5C 75.7564,81.5615 78.0897,81.5615 80.5,82.5 Z"/></g>
<g><path style="opacity:1" fill="#6c9699" d="M 41.5,20.5 C 42.2154,23.6419 41.2154,26.4753 38.5,29C 36.1195,29.7385 34.1195,29.2385 32.5,27.5C 34.1439,27.2865 35.6439,27.6198 37,28.5C 38.7653,25.9679 40.2653,23.3013 41.5,20.5 Z"/></g>
<g><path style="opacity:1" fill="#669295" d="M 42.5,19.5 C 42.6309,18.6236 42.2975,17.9569 41.5,17.5C 38.0061,19.0795 34.6728,20.9128 31.5,23C 29.1396,24.8737 29.473,26.3737 32.5,27.5C 27.3179,26.8837 26.6513,25.0504 30.5,22C 34.6896,18.9372 39.1896,16.4372 44,14.5C 45.4172,16.4187 44.9172,18.0853 42.5,19.5 Z"/></g>
<g><path style="opacity:1" fill="#6a9598" d="M 80.5,26.5 C 81.2891,26.2172 81.9558,25.7172 82.5,25C 80.1911,22.5134 77.5244,20.5134 74.5,19C 71.6655,16.816 70.3322,17.316 70.5,20.5C 69.5207,19.2347 68.5207,17.9014 67.5,16.5C 68.1667,16.1667 68.8333,15.8333 69.5,15.5C 75.5665,17.188 80.5665,20.3546 84.5,25C 83.445,27.055 82.1117,27.555 80.5,26.5 Z"/></g>
<g><path style="opacity:1" fill="#669295" d="M 70.5,20.5 C 72.0637,23.2743 73.897,25.941 76,28.5C 77.0113,27.6634 78.1779,27.33 79.5,27.5C 77.7986,29.4233 75.7986,29.7567 73.5,28.5C 71.9239,26.0207 70.9239,23.354 70.5,20.5 Z"/></g>
<g><path style="opacity:1" fill="#649093" d="M 70.5,27.5 C 71.8009,28.8845 71.8009,30.3845 70.5,32C 66.3678,33.8997 62.0345,34.733 57.5,34.5C 57.5,27.5 57.5,20.5 57.5,13.5C 59.604,13.2011 61.604,13.5344 63.5,14.5C 66.6361,18.4413 68.9695,22.7746 70.5,27.5 Z M 70.5,27.5 C 67.863,24.0113 65.363,20.3447 63,16.5C 61.8904,14.9632 60.3904,14.2965 58.5,14.5C 58.1703,20.8682 58.5037,27.2015 59.5,33.5C 62.8075,32.6047 66.1409,31.7713 69.5,31C 70.3366,29.9887 70.67,28.8221 70.5,27.5 Z"/></g>
<g><path style="opacity:1" fill="#6a9598" d="M 42.5,27.5 C 43.5956,22.6421 45.7623,18.3088 49,14.5C 51.0408,13.5769 53.2075,13.2436 55.5,13.5C 55.5,20.5 55.5,27.5 55.5,34.5C 50.6175,34.807 45.9508,33.9736 41.5,32C 40.0844,30.0849 40.4178,28.5849 42.5,27.5 Z M 42.5,27.5 C 42.5,28.8333 42.5,30.1667 42.5,31.5C 46.2316,32.0844 49.8983,32.5844 53.5,33C 54.6406,27.2496 54.8072,21.4163 54,15.5C 53.4387,14.9781 52.772,14.6448 52,14.5C 48.3328,18.5155 45.1661,22.8488 42.5,27.5 Z"/></g>
<g><path style="opacity:1" fill="#659295" d="M 27.5,20.5 C 22.3849,25.9464 18.0516,31.9464 14.5,38.5C 16.4765,30.8482 20.8098,24.8482 27.5,20.5 Z"/></g>
<g><path style="opacity:1" fill="#6b9598" d="M 33.5,41.5 C 33.1667,45.5 32.8333,49.5 32.5,53.5C 26.8333,53.5 21.1667,53.5 15.5,53.5C 15.2209,44.6121 17.7209,36.6121 23,29.5C 23.804,28.1955 24.9707,27.5288 26.5,27.5C 29.8903,28.8679 33.2236,30.2012 36.5,31.5C 36.68,35.2856 35.68,38.619 33.5,41.5 Z M 33.5,41.5 C 33.4661,38.8015 34.1328,36.3015 35.5,34C 32.2993,31.7327 28.9659,30.066 25.5,29C 20.1098,35.9423 17.1098,43.7757 16.5,52.5C 21.1785,52.6658 25.8452,52.4992 30.5,52C 31.0892,48.2959 32.0892,44.7959 33.5,41.5 Z"/></g>
<g><path style="opacity:1" fill="#6a9598" d="M 84.5,28.5 C 85.6009,27.4017 86.9343,27.235 88.5,28C 94.4655,35.4353 97.4655,43.9353 97.5,53.5C 91.8333,53.5 86.1667,53.5 80.5,53.5C 79.246,46.0717 77.5793,38.7384 75.5,31.5C 78.634,30.7593 81.634,29.7593 84.5,28.5 Z M 84.5,28.5 C 82.6597,30.6689 80.3263,32.0023 77.5,32.5C 79.6894,38.9635 81.0227,45.6302 81.5,52.5C 86.5,52.5 91.5,52.5 96.5,52.5C 95.7791,46.1698 93.9457,40.1698 91,34.5C 89.5945,31.5914 87.4278,29.5914 84.5,28.5 Z"/></g>
<g><path style="opacity:1" fill="#716998" d="M 159.5,29.5 C 160.568,28.5655 161.901,28.2322 163.5,28.5C 173.858,29.0593 183.858,31.2259 193.5,35C 194.756,35.4169 195.423,36.2502 195.5,37.5C 183.991,32.6646 171.991,29.998 159.5,29.5 Z"/></g>
<g><path style="opacity:1" fill="#706897" d="M 215.5,27.5 C 218.016,27.7553 220.35,28.5886 222.5,30C 227.027,33.6987 231.361,37.532 235.5,41.5C 228.552,37.2154 221.885,32.5487 215.5,27.5 Z"/></g>
<g><path style="opacity:1" fill="#685f91" d="M 195.5,37.5 C 198.442,38.3045 201.109,39.6378 203.5,41.5C 200.246,41.2064 197.579,39.873 195.5,37.5 Z"/></g>
<g><path style="opacity:1" fill="#665e90" d="M 235.5,41.5 C 236.833,41.5 237.5,42.1667 237.5,43.5C 236.5,43.1667 235.833,42.5 235.5,41.5 Z"/></g>
<g><path style="opacity:1" fill="#6e6596" d="M 203.5,41.5 C 206.337,41.6845 208.337,43.0178 209.5,45.5C 207.223,44.5514 205.223,43.2181 203.5,41.5 Z"/></g>
<g><path style="opacity:1" fill="#6d6595" d="M 237.5,43.5 C 241.135,47.3068 244.635,51.3068 248,55.5C 249.741,58.3093 250.908,61.3093 251.5,64.5C 246.841,57.5051 242.174,50.5051 237.5,43.5 Z"/></g>
<g><path style="opacity:1" fill="#689396" d="M 42.5,35.5 C 46.8072,36.3266 51.1405,36.9933 55.5,37.5C 55.5,42.8333 55.5,48.1667 55.5,53.5C 48.8333,53.5 42.1667,53.5 35.5,53.5C 35.0503,47.5675 35.8836,41.9009 38,36.5C 39.1244,33.1582 40.6244,32.8249 42.5,35.5 Z M 42.5,35.5 C 41.5041,35.4142 40.6708,35.7476 40,36.5C 38.0016,41.6592 36.835,46.9925 36.5,52.5C 42.4254,52.8082 48.2588,52.4749 54,51.5C 54.6667,47.5 54.6667,43.5 54,39.5C 49.8966,38.6901 46.0633,37.3568 42.5,35.5 Z"/></g>
<g><path style="opacity:1" fill="#689396" d="M 70.5,33.5 C 71.8221,33.33 72.9887,33.6634 74,34.5C 76.5322,40.5921 77.6988,46.9255 77.5,53.5C 70.8333,53.5 64.1667,53.5 57.5,53.5C 57.5,48.1667 57.5,42.8333 57.5,37.5C 61.553,36.9873 65.553,36.154 69.5,35C 70.056,34.6174 70.3893,34.1174 70.5,33.5 Z M 70.5,35.5 C 66.924,37.7276 62.924,38.7276 58.5,38.5C 58.5,43.1667 58.5,47.8333 58.5,52.5C 64.5368,52.8293 70.5368,52.4959 76.5,51.5C 75.6808,46.5401 74.3475,41.7068 72.5,37C 72.1639,35.9701 71.4972,35.4701 70.5,35.5 Z"/></g>
<g><path style="opacity:1" fill="#70999c" d="M 98.5,41.5 C 102.395,50.4818 102.395,59.4818 98.5,68.5C 99.8333,59.5 99.8333,50.5 98.5,41.5 Z"/></g>
<g><path style="opacity:1" fill="#6c6494" d="M 209.5,45.5 C 215.709,50.0284 220.375,55.695 223.5,62.5C 218.84,56.8389 214.173,51.1722 209.5,45.5 Z"/></g>
<g><path style="opacity:1" fill="#759c9f" d="M 14.5,40.5 C 13.1996,50.1622 13.1996,59.8289 14.5,69.5C 11.1663,60.8 10.6663,51.8 13,42.5C 13.2784,41.5842 13.7784,40.9175 14.5,40.5 Z"/></g>
<g><path style="opacity:1" fill="#417e82" d="M 223.5,63.5 C 225.104,64.287 225.771,65.6203 225.5,67.5C 235.429,66.6035 242.596,70.6035 247,79.5C 249.256,93.0757 243.756,98.7424 230.5,96.5C 230.5,95.8333 230.167,95.5 229.5,95.5C 226.777,93.8956 225.444,91.3956 225.5,88C 226.01,85.2442 226.843,82.7442 228,80.5C 212.004,69.0879 197.004,70.4212 183,84.5C 178.4,92.9656 175.4,101.966 174,111.5C 173.158,127.882 173.658,144.215 175.5,160.5C 175.833,161.167 176.167,161.833 176.5,162.5C 176.813,167.353 177.479,172.02 178.5,176.5C 178.5,177.167 178.833,177.5 179.5,177.5C 179.389,178.117 179.056,178.617 178.5,179C 180.141,180.129 181.141,181.629 181.5,183.5C 180.105,181.946 179.439,182.279 179.5,184.5C 181.274,193.739 181.94,203.072 181.5,212.5C 181.5,213.167 181.5,213.833 181.5,214.5C 180.775,231.573 176.441,247.573 168.5,262.5C 167.662,262.842 167.328,263.508 167.5,264.5C 160.233,275.933 150.566,284.766 138.5,291C 124.417,298.53 109.417,302.03 93.5,301.5C 93.1667,301.5 92.8333,301.5 92.5,301.5C 92.1667,301.5 91.8333,301.5 91.5,301.5C 83.4949,301.165 76.1616,298.831 69.5,294.5C 69.1667,294.5 68.8333,294.5 68.5,294.5C 68.5,293.833 68.1667,293.5 67.5,293.5C 67.5,292.833 67.1667,292.5 66.5,292.5C 63.319,290.408 60.319,288.075 57.5,285.5C 57.0679,284.29 56.4013,283.29 55.5,282.5C 55.5,282.167 55.5,281.833 55.5,281.5C 55.44,280.957 55.1067,280.624 54.5,280.5C 53.5016,290.144 53.1682,299.81 53.5,309.5C 49.0335,304.168 45.5335,298.168 43,291.5C 41.0191,284.243 39.3525,276.91 38,269.5C 37.5,211.501 37.3333,153.501 37.5,95.5C 37.8333,95.5 38.1667,95.5 38.5,95.5C 42.5,96.1667 46.5,96.8333 50.5,97.5C 52.1667,98.1667 53.8333,98.8333 55.5,99.5C 54.1669,121.323 53.5003,143.49 53.5,166C 53.5003,188.51 54.1669,210.677 55.5,232.5C 55.8333,232.5 56.1667,232.5 56.5,232.5C 59.5,232.5 62.5,232.5 65.5,232.5C 66.2905,233.401 67.2905,234.068 68.5,234.5C 68.5,235.167 68.8333,235.5 69.5,235.5C 71.0931,240.703 70.7598,245.703 68.5,250.5C 67.8333,250.833 67.1667,251.167 66.5,251.5C 63.5308,252.825 60.5308,252.825 57.5,251.5C 53.6058,264.71 56.2725,276.376 65.5,286.5C 66.209,287.404 67.209,287.737 68.5,287.5C 73.3712,292.602 79.3712,295.602 86.5,296.5C 87.9187,297.451 89.5853,297.784 91.5,297.5C 91.8333,297.5 92.1667,297.5 92.5,297.5C 117.526,299.235 137.692,290.235 153,270.5C 154.902,265.697 157.068,261.031 159.5,256.5C 159.5,255.833 159.5,255.167 159.5,254.5C 164.081,242.797 166.081,230.464 165.5,217.5C 164.759,200.67 162.593,184.003 159,167.5C 157.955,166.627 157.122,165.627 156.5,164.5C 157.693,164.03 158.36,163.03 158.5,161.5C 154.538,134.472 159.705,109.472 174,86.5C 180.681,79.1575 188.514,73.3241 197.5,69C 206.092,66.674 214.759,65.8406 223.5,66.5C 223.5,65.5 223.5,64.5 223.5,63.5 Z M 98.5,200.5 C 98.8588,202.371 99.8588,203.871 101.5,205C 105.614,207.284 109.28,210.117 112.5,213.5C 114.193,216.19 116.527,218.19 119.5,219.5C 121.234,222.2 123.568,224.2 126.5,225.5C 127.938,229.274 130.605,231.607 134.5,232.5C 135.833,234.5 137.5,236.167 139.5,237.5C 139.859,239.371 140.859,240.871 142.5,242C 144.734,243.75 147.068,245.25 149.5,246.5C 150.262,248.262 151.596,249.262 153.5,249.5C 154.757,252.427 156.757,254.761 159.5,256.5C 157.068,261.031 154.902,265.697 153,270.5C 137.692,290.235 117.526,299.235 92.5,297.5C 92.1668,264.16 92.5001,230.827 93.5,197.5C 95.3604,198.26 97.027,199.26 98.5,200.5 Z"/></g>
<g><path style="opacity:1" fill="#6f999c" d="M 14.5,69.5 C 16.5482,73.9262 18.8816,78.2595 21.5,82.5C 16.8646,79.572 14.5312,75.2387 14.5,69.5 Z"/></g>
<g><path style="opacity:1" fill="#6b9699" d="M 35.5,55.5 C 42.1667,55.5 48.8333,55.5 55.5,55.5C 55.5,61.1667 55.5,66.8333 55.5,72.5C 49.6684,72.7097 44.0017,73.7097 38.5,75.5C 36.2399,69.0424 35.2399,62.3758 35.5,55.5 Z M 36.5,56.5 C 36.5023,62.3501 37.8356,67.8501 40.5,73C 45.0913,72.191 49.7579,71.3577 54.5,70.5C 54.8,65.9014 54.4667,61.4014 53.5,57C 47.8431,56.5006 42.1764,56.3339 36.5,56.5 Z"/></g>
<g><path style="opacity:1" fill="#679396" d="M 27.5,81.5 C 26.7494,82.5735 25.7494,82.7401 24.5,82C 18.2289,74.2882 15.2289,65.4549 15.5,55.5C 21.1667,55.5 26.8333,55.5 32.5,55.5C 32.8814,62.3588 34.2148,69.0254 36.5,75.5C 34.2595,78.5876 31.2595,80.5876 27.5,81.5 Z M 27.5,81.5 C 29.5102,78.9725 32.1769,77.1392 35.5,76C 33.1892,70.3964 31.6892,64.563 31,58.5C 26.4816,56.593 21.6483,55.9264 16.5,56.5C 16.6493,66.4582 20.3159,74.7915 27.5,81.5 Z"/></g>
<g><path style="opacity:1" fill="#6b9698" d="M 57.5,55.5 C 64.1667,55.5 70.8333,55.5 77.5,55.5C 77.6646,58.5184 77.498,61.5184 77,64.5C 75.8182,68.1882 74.6516,71.8548 73.5,75.5C 68.2266,74.1817 62.8933,73.1817 57.5,72.5C 57.5,66.8333 57.5,61.1667 57.5,55.5 Z M 58.5,56.5 C 58.5,61.1667 58.5,65.8333 58.5,70.5C 62.7633,71.0531 66.93,72.0531 71,73.5C 71.5,73.1667 72,72.8333 72.5,72.5C 74.5213,67.8159 75.8547,62.9825 76.5,58C 70.6828,56.5474 64.6828,56.0474 58.5,56.5 Z"/></g>
<g><path style="opacity:1" fill="#70999c" d="M 42.5,82.5 C 45.3036,86.1541 47.9703,89.9875 50.5,94C 51.7932,94.49 53.1266,94.6567 54.5,94.5C 54.5,88.5 54.5,82.5 54.5,76.5C 51.0901,76.4571 47.7568,76.9571 44.5,78C 43.0267,78.7096 42.3601,79.8762 42.5,81.5C 40.5241,80.5729 40.1908,79.2395 41.5,77.5C 45.9678,75.5496 50.6345,74.5496 55.5,74.5C 55.5,81.5 55.5,88.5 55.5,95.5C 53.4727,95.6621 51.4727,95.4955 49.5,95C 46.2361,91.3009 43.9028,87.1342 42.5,82.5 Z"/></g>
<g><path style="opacity:1" fill="#71989c" d="M 98.5,68.5 C 98.741,71.7935 97.9076,74.7935 96,77.5C 90.5718,83.4169 85.4051,89.4169 80.5,95.5C 76.9682,95.31 73.6348,95.9767 70.5,97.5C 69.5084,97.3284 68.8417,97.6618 68.5,98.5C 67.8333,98.5 67.1667,98.5 66.5,98.5C 64.5648,99.1495 62.5648,99.4828 60.5,99.5C 58.8333,99.5 57.1667,99.5 55.5,99.5C 53.8333,98.8333 52.1667,98.1667 50.5,97.5C 73.7113,99.5684 89.7113,89.9017 98.5,68.5 Z"/></g>
<g><path style="opacity:1" fill="#689497" d="M 79.5,55.5 C 85.5,55.5 91.5,55.5 97.5,55.5C 97.5932,64.3128 95.0932,72.3128 90,79.5C 88.9384,80.8993 87.605,81.8993 86,82.5C 82.0125,80.7663 78.5125,78.4329 75.5,75.5C 76.3845,72.0651 77.5512,68.7318 79,65.5C 79.4983,62.1832 79.665,58.8499 79.5,55.5 Z M 82.5,56.5 C 81.2811,62.7486 79.6144,68.9153 77.5,75C 80.2527,77.0622 83.086,79.2288 86,81.5C 92.4641,74.4373 95.6308,66.2706 95.5,57C 91.1794,56.501 86.8461,56.3343 82.5,56.5 Z"/></g>
<g><path style="opacity:1" fill="#689397" d="M 42.5,89.5 C 40.9808,86.9795 39.3141,84.4795 37.5,82C 35.5753,82.1349 33.5753,82.3016 31.5,82.5C 33.425,80.5381 35.7583,79.7048 38.5,80C 40.5328,82.8959 41.8662,86.0626 42.5,89.5 Z"/></g>
<g><path style="opacity:1" fill="#649194" d="M 80.5,82.5 C 78.0897,81.5615 75.7564,81.5615 73.5,82.5C 73.5,81.5 73.5,80.5 73.5,79.5C 76.2406,79.7073 78.5739,80.7073 80.5,82.5 Z"/></g>
<g><path style="opacity:1" fill="#aac3c5" d="M 61.5,75.5 C 60.1667,75.5 58.8333,75.5 57.5,75.5C 57.5,82.1667 57.5,88.8333 57.5,95.5C 56.5088,88.6866 56.1755,81.6866 56.5,74.5C 58.4147,74.2155 60.0813,74.5489 61.5,75.5 Z"/></g>
<g><path style="opacity:1" fill="#659093" d="M 61.5,75.5 C 64.5682,75.5467 67.5682,76.0467 70.5,77C 71.7911,78.2917 71.7911,79.4583 70.5,80.5C 70.4226,79.2502 69.756,78.4169 68.5,78C 65.2432,76.9571 61.9099,76.4571 58.5,76.5C 58.5,82.5 58.5,88.5 58.5,94.5C 59.9778,94.762 61.3112,94.4287 62.5,93.5C 65.19,89.4346 67.8567,85.4346 70.5,81.5C 69.4044,86.3579 67.2377,90.6912 64,94.5C 61.9592,95.4231 59.7925,95.7564 57.5,95.5C 57.5,88.8333 57.5,82.1667 57.5,75.5C 58.8333,75.5 60.1667,75.5 61.5,75.5 Z"/></g>
<g><path style="opacity:1" fill="#628f92" d="M 73.5,82.5 C 73.0075,84.8185 72.0075,86.8185 70.5,88.5C 70.461,85.911 71.461,83.911 73.5,82.5 Z"/></g>
<g><path style="opacity:1" fill="#70999b" d="M 31.5,82.5 C 30.6971,83.4232 30.5304,84.4232 31,85.5C 33.8522,88.2612 37.1855,90.2612 41,91.5C 42.0299,91.1639 42.5299,90.4972 42.5,89.5C 43.4793,90.7653 44.4793,92.0986 45.5,93.5C 41.9923,94.0665 38.659,93.2332 35.5,91C 32.6105,89.0622 29.9438,86.8955 27.5,84.5C 28.3202,82.8888 29.6536,82.2222 31.5,82.5 Z"/></g>
<g><path style="opacity:1" fill="#689396" d="M 81.5,83.5 C 82.7434,82.2625 83.7434,82.5959 84.5,84.5C 79.9197,89.9529 74.253,92.9529 67.5,93.5C 68.2745,91.6036 69.2745,89.937 70.5,88.5C 70.281,89.675 70.6143,90.675 71.5,91.5C 75.2121,89.8933 78.7121,87.8933 82,85.5C 82.6917,84.5632 82.525,83.8966 81.5,83.5 Z"/></g>
<g><path style="opacity:1" fill="#719a9d" d="M 21.5,82.5 C 22.2389,82.369 22.9056,82.5357 23.5,83C 27.3834,88.5945 32.3834,92.7612 38.5,95.5C 38.1667,95.5 37.8333,95.5 37.5,95.5C 30.404,93.4103 25.0707,89.077 21.5,82.5 Z"/></g>
<g><path style="opacity:1" fill="#fdfdfd" d="M 80.5,95.5 C 84.9712,101.314 90.3045,105.981 96.5,109.5C 96.8333,110.5 97.5,111.167 98.5,111.5C 99.2026,113.716 100.536,115.549 102.5,117C 105.397,119.41 108.397,121.577 111.5,123.5C 115.269,127.771 119.269,131.938 123.5,136C 124.448,136.483 125.448,136.649 126.5,136.5C 126.369,137.239 126.536,137.906 127,138.5C 131.292,142.057 135.459,145.723 139.5,149.5C 144.819,154.814 150.486,159.814 156.5,164.5C 157.122,165.627 157.955,166.627 159,167.5C 162.593,184.003 164.759,200.67 165.5,217.5C 166.081,230.464 164.081,242.797 159.5,254.5C 157.5,252.833 155.5,251.167 153.5,249.5C 152.738,247.738 151.404,246.738 149.5,246.5C 146.789,242.788 143.456,239.788 139.5,237.5C 138.833,234.833 137.167,233.167 134.5,232.5C 131.859,230.196 129.192,227.862 126.5,225.5C 126.586,224.504 126.252,223.671 125.5,223C 123.595,221.579 121.595,220.412 119.5,219.5C 117.761,216.757 115.427,214.757 112.5,213.5C 111.118,210.606 109.118,208.106 106.5,206C 103.403,204.727 100.736,202.893 98.5,200.5C 97.4731,197.142 95.1398,195.475 91.5,195.5C 90.5017,228.996 90.1684,262.663 90.5,296.5C 89.1667,296.5 87.8333,296.5 86.5,296.5C 79.3712,295.602 73.3712,292.602 68.5,287.5C 68.5,275.167 68.5,262.833 68.5,250.5C 70.7598,245.703 71.0931,240.703 69.5,235.5C 69.1721,189.428 69.5054,143.428 70.5,97.5C 73.6348,95.9767 76.9682,95.31 80.5,95.5 Z"/></g>
<g><path style="opacity:1" fill="#e3e1ea" d="M 70.5,97.5 C 69.5054,143.428 69.1721,189.428 69.5,235.5C 68.8333,235.5 68.5,235.167 68.5,234.5C 68.5,189.167 68.5,143.833 68.5,98.5C 68.8417,97.6618 69.5084,97.3284 70.5,97.5 Z"/></g>
<g><path style="opacity:1" fill="#fdfdfd" d="M 66.5,98.5 C 66.8321,143.336 66.4987,188.003 65.5,232.5C 62.5,232.5 59.5,232.5 56.5,232.5C 56.5,188.5 56.5,144.5 56.5,100.5C 58.099,100.768 59.4324,100.434 60.5,99.5C 62.5648,99.4828 64.5648,99.1495 66.5,98.5 Z"/></g>
<g><path style="opacity:1" fill="#918aaf" d="M 66.5,98.5 C 67.1667,98.5 67.8333,98.5 68.5,98.5C 68.5,143.833 68.5,189.167 68.5,234.5C 67.2905,234.068 66.2905,233.401 65.5,232.5C 66.4987,188.003 66.8321,143.336 66.5,98.5 Z"/></g>
<g><path style="opacity:1" fill="#455a80" d="M 55.5,99.5 C 55.5,143.833 55.5,188.167 55.5,232.5C 54.1669,210.677 53.5003,188.51 53.5,166C 53.5003,143.49 54.1669,121.323 55.5,99.5 Z"/></g>
<g><path style="opacity:1" fill="#d6d3e1" d="M 55.5,99.5 C 57.1667,99.5 58.8333,99.5 60.5,99.5C 59.4324,100.434 58.099,100.768 56.5,100.5C 56.5,144.5 56.5,188.5 56.5,232.5C 56.1667,232.5 55.8333,232.5 55.5,232.5C 55.5,188.167 55.5,143.833 55.5,99.5 Z"/></g>
<g><path style="opacity:1" fill="#746c9a" d="M 80.5,95.5 C 81.5832,95.5394 82.5832,95.8728 83.5,96.5C 87.5481,101.215 91.8814,105.548 96.5,109.5C 90.3045,105.981 84.9712,101.314 80.5,95.5 Z"/></g>
<g><path style="opacity:1" fill="#665f91" d="M 251.5,66.5 C 254.391,71.6961 256.224,77.3628 257,83.5C 257.92,93.5944 257.42,103.594 255.5,113.5C 254.447,116.608 253.114,119.608 251.5,122.5C 254.119,113.354 255.785,104.021 256.5,94.5C 255.859,84.9655 254.193,75.6322 251.5,66.5 Z"/></g>
<g><path style="opacity:1" fill="#686192" d="M 96.5,109.5 C 97.8333,109.5 98.5,110.167 98.5,111.5C 97.5,111.167 96.8333,110.5 96.5,109.5 Z"/></g>
<g><path style="opacity:1" fill="#6d6495" d="M 229.5,95.5 C 230.167,95.5 230.5,95.8333 230.5,96.5C 230.303,103.651 229.137,110.651 227,117.5C 226.284,119.879 225.117,121.879 223.5,123.5C 226.944,114.494 228.944,105.161 229.5,95.5 Z"/></g>
<g><path style="opacity:1" fill="#6f6796" d="M 98.5,111.5 C 103.46,114.792 107.793,118.792 111.5,123.5C 108.397,121.577 105.397,119.41 102.5,117C 100.536,115.549 99.2026,113.716 98.5,111.5 Z"/></g>
<g><path style="opacity:1" fill="#437f83" d="M 255.5,113.5 C 255.5,157.833 255.5,202.167 255.5,246.5C 254.833,246.5 254.167,246.5 253.5,246.5C 252.167,246.5 251.5,245.833 251.5,244.5C 247.722,239.383 243.055,235.383 237.5,232.5C 237.5,231.833 237.5,231.167 237.5,230.5C 237.5,202.833 237.5,175.167 237.5,147.5C 237.672,146.508 237.338,145.842 236.5,145.5C 236.5,144.833 236.833,144.5 237.5,144.5C 244.408,139.023 249.075,132.023 251.5,123.5C 251.5,123.167 251.5,122.833 251.5,122.5C 253.114,119.608 254.447,116.608 255.5,113.5 Z"/></g>
<g><path style="opacity:1" fill="#6c6595" d="M 223.5,124.5 C 222.226,128.381 220.393,132.048 218,135.5C 217.329,136.252 216.496,136.586 215.5,136.5C 217.808,132.205 220.474,128.205 223.5,124.5 Z"/></g>
<g><path style="opacity:1" fill="#7a729e" d="M 111.5,123.5 C 116.801,127.466 121.801,131.8 126.5,136.5C 125.448,136.649 124.448,136.483 123.5,136C 119.269,131.938 115.269,127.771 111.5,123.5 Z"/></g>
<g><path style="opacity:1" fill="#706897" d="M 126.5,136.5 C 129.003,138.833 131.669,140.999 134.5,143C 136.79,144.777 138.457,146.944 139.5,149.5C 135.459,145.723 131.292,142.057 127,138.5C 126.536,137.906 126.369,137.239 126.5,136.5 Z"/></g>
<g><path style="opacity:1" fill="#706897" d="M 215.5,136.5 C 212.09,142.911 207.09,147.578 200.5,150.5C 205.546,145.784 210.546,141.117 215.5,136.5 Z"/></g>
<g><path style="opacity:1" fill="#515485" d="M 251.5,123.5 C 249.075,132.023 244.408,139.023 237.5,144.5C 242.418,137.664 247.084,130.664 251.5,123.5 Z"/></g>
<g><path style="opacity:1" fill="#655c90" d="M 236.5,145.5 C 237.338,145.842 237.672,146.508 237.5,147.5C 236.508,147.328 235.842,147.662 235.5,148.5C 234.395,149.6 233.062,150.267 231.5,150.5C 232.833,148.5 234.5,146.833 236.5,145.5 Z"/></g>
<g><path style="opacity:1" fill="#fcfcfd" d="M 235.5,148.5 C 236.833,175.5 236.833,202.5 235.5,229.5C 231.792,225.79 227.792,222.457 223.5,219.5C 220.192,216.529 216.859,213.529 213.5,210.5C 213.167,195.152 213.501,179.819 214.5,164.5C 220.793,160.535 226.46,155.869 231.5,150.5C 233.062,150.267 234.395,149.6 235.5,148.5 Z"/></g>
<g><path style="opacity:1" fill="#b0adc5" d="M 235.5,148.5 C 235.842,147.662 236.508,147.328 237.5,147.5C 237.5,175.167 237.5,202.833 237.5,230.5C 236.508,230.672 235.842,230.338 235.5,229.5C 236.833,202.5 236.833,175.5 235.5,148.5 Z"/></g>
<g><path style="opacity:1" fill="#7b739f" d="M 139.5,149.5 C 146.085,153.416 151.751,158.416 156.5,164.5C 150.486,159.814 144.819,154.814 139.5,149.5 Z"/></g>
<g><path style="opacity:1" fill="#716998" d="M 199.5,150.5 C 192.882,156.311 185.215,160.311 176.5,162.5C 176.167,161.833 175.833,161.167 175.5,160.5C 178.647,160.263 181.647,159.43 184.5,158C 189.595,155.452 194.595,152.952 199.5,150.5 Z"/></g>
<g><path style="opacity:1" fill="#7f77a1" d="M 231.5,150.5 C 226.46,155.869 220.793,160.535 214.5,164.5C 213.501,179.819 213.167,195.152 213.5,210.5C 212.504,195.342 212.17,180.009 212.5,164.5C 218.828,159.84 225.161,155.174 231.5,150.5 Z"/></g>
<g><path style="opacity:1" fill="#696293" d="M 209.5,165.5 C 210.209,164.596 211.209,164.263 212.5,164.5C 212.17,180.009 212.504,195.342 213.5,210.5C 216.859,213.529 220.192,216.529 223.5,219.5C 218.614,216.794 214.114,213.461 210,209.5C 209.536,208.906 209.369,208.239 209.5,207.5C 210.117,207.611 210.617,207.944 211,208.5C 211.167,201.333 211.333,194.167 211.5,187C 211.497,179.467 210.831,172.301 209.5,165.5 Z"/></g>
<g><path style="opacity:1" fill="#6e6696" d="M 209.5,165.5 C 207.421,167.873 204.754,169.206 201.5,169.5C 203.612,167.229 206.279,165.896 209.5,165.5 Z"/></g>
<g><path style="opacity:1" fill="#746b9a" d="M 201.5,169.5 C 194.897,173.925 187.564,176.592 179.5,177.5C 178.833,177.5 178.5,177.167 178.5,176.5C 186.273,174.443 193.939,172.11 201.5,169.5 Z"/></g>
<g><path style="opacity:1" fill="#fbfbfc" d="M 181.5,183.5 C 185.187,188.512 189.854,192.512 195.5,195.5C 195.859,197.371 196.859,198.871 198.5,200C 201.774,203.112 205.44,205.612 209.5,207.5C 209.369,208.239 209.536,208.906 210,209.5C 214.114,213.461 218.614,216.794 223.5,219.5C 224.203,221.716 225.536,223.549 227.5,225C 230.71,227.717 234.044,230.217 237.5,232.5C 241.785,236.971 246.452,240.971 251.5,244.5C 251.5,245.833 252.167,246.5 253.5,246.5C 253.698,256.204 253.198,265.87 252,275.5C 251.184,274.177 250.017,273.511 248.5,273.5C 244.441,268.438 239.774,264.105 234.5,260.5C 231.457,256.456 227.791,253.123 223.5,250.5C 223.167,248.167 221.833,246.833 219.5,246.5C 216.208,243.51 212.874,240.51 209.5,237.5C 209.141,235.629 208.141,234.129 206.5,233C 200.652,228.643 194.985,224.143 189.5,219.5C 187.431,216.427 184.764,214.094 181.5,212.5C 181.94,203.072 181.274,193.739 179.5,184.5C 179.439,182.279 180.105,181.946 181.5,183.5 Z"/></g>
<g><path style="opacity:1" fill="#716998" d="M 181.5,183.5 C 185.343,186.503 189.343,189.336 193.5,192C 194.823,192.816 195.489,193.983 195.5,195.5C 189.854,192.512 185.187,188.512 181.5,183.5 Z"/></g>
<g><path style="opacity:1" fill="#ebebf1" d="M 91.5,195.5 C 91.5,229.5 91.5,263.5 91.5,297.5C 89.5853,297.784 87.9187,297.451 86.5,296.5C 87.8333,296.5 89.1667,296.5 90.5,296.5C 90.1684,262.663 90.5017,228.996 91.5,195.5 Z"/></g>
<g><path style="opacity:1" fill="#665e91" d="M 91.5,195.5 C 95.1398,195.475 97.4731,197.142 98.5,200.5C 97.027,199.26 95.3604,198.26 93.5,197.5C 92.5001,230.827 92.1668,264.16 92.5,297.5C 92.1667,297.5 91.8333,297.5 91.5,297.5C 91.5,263.5 91.5,229.5 91.5,195.5 Z"/></g>
<g><path style="opacity:1" fill="#716998" d="M 195.5,195.5 C 200.531,199.207 205.198,203.207 209.5,207.5C 205.44,205.612 201.774,203.112 198.5,200C 196.859,198.871 195.859,197.371 195.5,195.5 Z"/></g>
<g><path style="opacity:1" fill="#766e9b" d="M 98.5,200.5 C 100.736,202.893 103.403,204.727 106.5,206C 109.118,208.106 111.118,210.606 112.5,213.5C 109.28,210.117 105.614,207.284 101.5,205C 99.8588,203.871 98.8588,202.371 98.5,200.5 Z"/></g>
<g><path style="opacity:1" fill="#7d75a0" d="M 181.5,212.5 C 184.764,214.094 187.431,216.427 189.5,219.5C 186.525,218.345 183.858,216.678 181.5,214.5C 181.5,213.833 181.5,213.167 181.5,212.5 Z"/></g>
<g><path style="opacity:1" fill="#78709d" d="M 112.5,213.5 C 115.427,214.757 117.761,216.757 119.5,219.5C 116.527,218.19 114.193,216.19 112.5,213.5 Z"/></g>
<g><path style="opacity:1" fill="#fbfbfc" d="M 181.5,214.5 C 183.858,216.678 186.525,218.345 189.5,219.5C 195.24,226.576 201.907,232.576 209.5,237.5C 211.595,241.931 214.929,244.931 219.5,246.5C 220.5,248.167 221.833,249.5 223.5,250.5C 224.203,252.716 225.536,254.549 227.5,256C 229.734,257.75 232.068,259.25 234.5,260.5C 235.925,261.922 236.925,263.589 237.5,265.5C 237.5,281.5 237.5,297.5 237.5,313.5C 237.672,314.492 237.338,315.158 236.5,315.5C 232.702,314.517 228.702,314.183 224.5,314.5C 223.772,312.265 222.439,310.432 220.5,309C 212,301.998 203.666,294.831 195.5,287.5C 190.468,282.467 185.135,277.801 179.5,273.5C 176.14,269.473 172.473,265.806 168.5,262.5C 176.441,247.573 180.775,231.573 181.5,214.5 Z"/></g>
<g><path style="opacity:1" fill="#706897" d="M 119.5,219.5 C 121.595,220.412 123.595,221.579 125.5,223C 126.252,223.671 126.586,224.504 126.5,225.5C 123.568,224.2 121.234,222.2 119.5,219.5 Z"/></g>
<g><path style="opacity:1" fill="#6d6495" d="M 223.5,219.5 C 227.792,222.457 231.792,225.79 235.5,229.5C 235.842,230.338 236.508,230.672 237.5,230.5C 237.5,231.167 237.5,231.833 237.5,232.5C 234.044,230.217 230.71,227.717 227.5,225C 225.536,223.549 224.203,221.716 223.5,219.5 Z"/></g>
<g><path style="opacity:1" fill="#6f6796" d="M 126.5,225.5 C 129.192,227.862 131.859,230.196 134.5,232.5C 130.605,231.607 127.938,229.274 126.5,225.5 Z"/></g>
<g><path style="opacity:1" fill="#6f6796" d="M 134.5,232.5 C 137.167,233.167 138.833,234.833 139.5,237.5C 137.5,236.167 135.833,234.5 134.5,232.5 Z"/></g>
<g><path style="opacity:1" fill="#7c74a0" d="M 189.5,219.5 C 194.985,224.143 200.652,228.643 206.5,233C 208.141,234.129 209.141,235.629 209.5,237.5C 201.907,232.576 195.24,226.576 189.5,219.5 Z"/></g>
<g><path style="opacity:1" fill="#585689" d="M 237.5,232.5 C 243.055,235.383 247.722,239.383 251.5,244.5C 246.452,240.971 241.785,236.971 237.5,232.5 Z"/></g>
<g><path style="opacity:1" fill="#7a729e" d="M 139.5,237.5 C 143.456,239.788 146.789,242.788 149.5,246.5C 147.068,245.25 144.734,243.75 142.5,242C 140.859,240.871 139.859,239.371 139.5,237.5 Z"/></g>
<g><path style="opacity:1" fill="#736b99" d="M 209.5,237.5 C 212.874,240.51 216.208,243.51 219.5,246.5C 214.929,244.931 211.595,241.931 209.5,237.5 Z"/></g>
<g><path style="opacity:1" fill="#6c6494" d="M 149.5,246.5 C 151.404,246.738 152.738,247.738 153.5,249.5C 151.596,249.262 150.262,248.262 149.5,246.5 Z"/></g>
<g><path style="opacity:1" fill="#665d90" d="M 219.5,246.5 C 221.833,246.833 223.167,248.167 223.5,250.5C 221.833,249.5 220.5,248.167 219.5,246.5 Z"/></g>
<g><path style="opacity:1" fill="#766e9c" d="M 223.5,250.5 C 227.791,253.123 231.457,256.456 234.5,260.5C 232.068,259.25 229.734,257.75 227.5,256C 225.536,254.549 224.203,252.716 223.5,250.5 Z"/></g>
<g><path style="opacity:1" fill="#f9fbfb" d="M 66.5,251.5 C 66.8283,263.345 66.4949,275.012 65.5,286.5C 56.2725,276.376 53.6058,264.71 57.5,251.5C 60.5308,252.825 63.5308,252.825 66.5,251.5 Z"/></g>
<g><path style="opacity:1" fill="#918aaf" d="M 68.5,250.5 C 68.5,262.833 68.5,275.167 68.5,287.5C 67.209,287.737 66.209,287.404 65.5,286.5C 66.4949,275.012 66.8283,263.345 66.5,251.5C 67.1667,251.167 67.8333,250.833 68.5,250.5 Z"/></g>
<g><path style="opacity:1" fill="#6d6595" d="M 153.5,249.5 C 155.5,251.167 157.5,252.833 159.5,254.5C 159.5,255.167 159.5,255.833 159.5,256.5C 156.757,254.761 154.757,252.427 153.5,249.5 Z"/></g>
<g><path style="opacity:1" fill="#726a98" d="M 168.5,262.5 C 172.473,265.806 176.14,269.473 179.5,273.5C 175.518,270.524 171.518,267.524 167.5,264.5C 167.328,263.508 167.662,262.842 168.5,262.5 Z"/></g>
<g><path style="opacity:1" fill="#585a8a" d="M 234.5,260.5 C 239.774,264.105 244.441,268.438 248.5,273.5C 244.686,271.087 241.019,268.421 237.5,265.5C 236.925,263.589 235.925,261.922 234.5,260.5 Z"/></g>
<g><path style="opacity:1" fill="#407d82" d="M 237.5,265.5 C 241.019,268.421 244.686,271.087 248.5,273.5C 249.5,275.167 250.833,276.5 252.5,277.5C 251.373,291.241 246.373,303.241 237.5,313.5C 237.5,297.5 237.5,281.5 237.5,265.5 Z"/></g>
<g><path style="opacity:1" fill="#746f9a" d="M 253.5,246.5 C 254.167,246.5 254.833,246.5 255.5,246.5C 255.863,257.112 254.863,267.445 252.5,277.5C 250.833,276.5 249.5,275.167 248.5,273.5C 250.017,273.511 251.184,274.177 252,275.5C 253.198,265.87 253.698,256.204 253.5,246.5 Z"/></g>
<g><path style="opacity:1" fill="#746c9a" d="M 179.5,273.5 C 185.135,277.801 190.468,282.467 195.5,287.5C 189.273,283.945 183.94,279.278 179.5,273.5 Z"/></g>
<g><path style="opacity:1" fill="#416480" d="M 55.5,281.5 C 54.5062,290.986 54.1729,300.652 54.5,310.5C 58.8333,310.5 63.1667,310.5 67.5,310.5C 67.5,315.5 67.5,320.5 67.5,325.5C 66.8333,325.5 66.5,325.167 66.5,324.5C 66.5,320.167 66.5,315.833 66.5,311.5C 62.5,311.5 58.5,311.5 54.5,311.5C 53.6618,311.158 53.3284,310.492 53.5,309.5C 53.1682,299.81 53.5016,290.144 54.5,280.5C 55.1067,280.624 55.44,280.957 55.5,281.5 Z"/></g>
<g><path style="opacity:1" fill="#c8c5d6" d="M 55.5,282.5 C 56.4013,283.29 57.0679,284.29 57.5,285.5C 56.508,292.982 56.1746,300.648 56.5,308.5C 59.8333,308.5 63.1667,308.5 66.5,308.5C 66.5,303.167 66.5,297.833 66.5,292.5C 67.1667,292.5 67.5,292.833 67.5,293.5C 67.5,298.833 67.5,304.167 67.5,309.5C 63.5,309.5 59.5,309.5 55.5,309.5C 55.5,300.5 55.5,291.5 55.5,282.5 Z"/></g>
<g><path style="opacity:1" fill="#fcfdfd" d="M 57.5,285.5 C 60.319,288.075 63.319,290.408 66.5,292.5C 66.5,297.833 66.5,303.167 66.5,308.5C 63.1667,308.5 59.8333,308.5 56.5,308.5C 56.1746,300.648 56.508,292.982 57.5,285.5 Z"/></g>
<g><path style="opacity:1" fill="#6e6996" d="M 195.5,287.5 C 203.666,294.831 212,301.998 220.5,309C 222.439,310.432 223.772,312.265 224.5,314.5C 221.907,313.246 219.573,311.58 217.5,309.5C 211.696,303.866 205.696,298.366 199.5,293C 197.536,291.549 196.203,289.716 195.5,287.5 Z"/></g>
<g><path style="opacity:1" fill="#dad7e3" d="M 68.5,294.5 C 68.8333,294.5 69.1667,294.5 69.5,294.5C 69.5,304.167 69.5,313.833 69.5,323.5C 76.8333,323.5 84.1667,323.5 91.5,323.5C 84.0182,324.492 76.3516,324.825 68.5,324.5C 68.5,314.5 68.5,304.5 68.5,294.5 Z"/></g>
<g><path style="opacity:1" fill="#fcfdfd" d="M 69.5,294.5 C 76.1616,298.831 83.4949,301.165 91.5,301.5C 91.5,308.833 91.5,316.167 91.5,323.5C 84.1667,323.5 76.8333,323.5 69.5,323.5C 69.5,313.833 69.5,304.167 69.5,294.5 Z"/></g>
<g><path style="opacity:1" fill="#585188" d="M 55.5,281.5 C 55.5,281.833 55.5,282.167 55.5,282.5C 55.5,291.5 55.5,300.5 55.5,309.5C 59.5,309.5 63.5,309.5 67.5,309.5C 67.5,304.167 67.5,298.833 67.5,293.5C 68.1667,293.5 68.5,293.833 68.5,294.5C 68.5,304.5 68.5,314.5 68.5,324.5C 76.3516,324.825 84.0182,324.492 91.5,323.5C 91.5,316.167 91.5,308.833 91.5,301.5C 91.8333,301.5 92.1667,301.5 92.5,301.5C 92.5,309.5 92.5,317.5 92.5,325.5C 84.1667,325.5 75.8333,325.5 67.5,325.5C 67.5,320.5 67.5,315.5 67.5,310.5C 63.1667,310.5 58.8333,310.5 54.5,310.5C 54.1729,300.652 54.5062,290.986 55.5,281.5 Z"/></g>
<g><path style="opacity:1" fill="#407d81" d="M 93.5,303.5 C 101.434,313.591 111.1,321.758 122.5,328C 152.868,339.696 181.535,336.696 208.5,319C 211.49,315.835 214.49,312.668 217.5,309.5C 219.573,311.58 221.907,313.246 224.5,314.5C 224.611,315.117 224.944,315.617 225.5,316C 228.817,316.498 232.15,316.665 235.5,316.5C 220.755,333.208 202.422,343.708 180.5,348C 147.251,355.431 115.251,352.097 84.5,338C 78.7064,334.691 73.3731,330.858 68.5,326.5C 76.8333,326.5 85.1667,326.5 93.5,326.5C 93.5,318.833 93.5,311.167 93.5,303.5 Z"/></g>
<g><path style="opacity:1" fill="#427e82" d="M 54.5,311.5 C 58.5,311.5 62.5,311.5 66.5,311.5C 66.5,315.833 66.5,320.167 66.5,324.5C 61.8206,320.82 57.8206,316.486 54.5,311.5 Z"/></g>
<g><path style="opacity:1" fill="#595d8b" d="M 224.5,314.5 C 228.702,314.183 232.702,314.517 236.5,315.5C 236.5,316.167 236.167,316.5 235.5,316.5C 232.15,316.665 228.817,316.498 225.5,316C 224.944,315.617 224.611,315.117 224.5,314.5 Z"/></g>
<g><path style="opacity:1" fill="#3f6a80" d="M 92.5,301.5 C 92.8333,301.5 93.1667,301.5 93.5,301.5C 93.5,302.167 93.5,302.833 93.5,303.5C 93.5,311.167 93.5,318.833 93.5,326.5C 85.1667,326.5 76.8333,326.5 68.5,326.5C 67.8333,326.5 67.5,326.167 67.5,325.5C 75.8333,325.5 84.1667,325.5 92.5,325.5C 92.5,317.5 92.5,309.5 92.5,301.5 Z"/></g>
</svg>
